<svg width="32" height="32" viewBox="0 0 32 32" fill="none" xmlns="http://www.w3.org/2000/svg">
<rect width="32" height="32" rx="16" fill="#222F3F"/>
<path fill-rule="evenodd" clip-rule="evenodd" d="M16.4816 16.7031C16.2074 17.248 15.7398 17.5996 15.2336 17.7191C15.1562 17.7191 15.0402 17.7578 14.9207 17.7578C14.0628 17.7578 13.5566 17.0934 13.5566 16.1195C13.5566 14.868 14.2984 14.2844 15.2336 14.0102C15.7398 13.8941 16.3269 13.8555 16.914 13.8555V14.323C16.9105 15.2195 16.9492 15.9227 16.4816 16.7031ZM16.9105 12.059C16.4043 12.0977 15.8171 12.1363 15.23 12.2137C14.3336 12.3332 13.4371 12.4879 12.6953 12.8395C11.2503 13.4266 10.2765 14.6746 10.2765 16.5098C10.2765 18.816 11.7601 19.9867 13.6339 19.9867C14.2562 19.9867 14.766 19.9094 15.2336 19.7934C15.9753 19.5578 16.6011 19.1289 17.3394 18.3484C17.7683 18.9355 17.8878 19.2098 18.6261 19.832C18.823 19.9094 19.0164 19.9094 19.1711 19.7934C19.6386 19.4031 20.4613 18.7 20.8902 18.3098C21.0871 18.1551 21.0484 17.9195 20.9289 17.7262C20.5 17.1777 20.0711 16.7102 20.0711 15.6555V12.1434C20.0711 10.6598 20.1906 9.29219 19.0972 8.27969C18.2007 7.45352 16.7945 7.14062 15.7011 7.14062H15.2336C13.2437 7.25664 11.1378 8.11445 10.6668 10.5754C10.5894 10.8883 10.825 11.0043 10.9796 11.043L13.1664 11.3172C13.4019 11.2785 13.5179 11.0816 13.5566 10.8883C13.75 10.0305 14.4531 9.59805 15.2336 9.5207H15.3918C15.8593 9.5207 16.3691 9.71758 16.6398 10.1078C16.9527 10.5754 16.914 11.2012 16.914 11.7496V12.059H16.9105Z" fill="white"/>
<path fill-rule="evenodd" clip-rule="evenodd" d="M7.54844 20.2926C7.63281 20.2926 7.71719 20.3172 7.80156 20.3594C10.1887 21.6848 12.5547 23.0312 15.4551 23.0312C15.5219 23.0312 15.5887 23.0312 15.6555 23.0277C17.5012 22.9891 19.4945 22.5355 21.3895 21.7656L21.5652 21.6953L21.6988 21.6391C21.7902 21.6004 21.8887 21.5582 21.9801 21.5195C22.0645 21.4809 22.1559 21.4598 22.2438 21.4598C22.5215 21.4598 22.7781 21.6637 22.7852 21.966C22.7852 22.1383 22.6867 22.3 22.5461 22.4055C22.3176 22.5883 22.0785 22.7535 21.8359 22.8977L21.8254 22.9047C19.9797 24.0648 17.6066 24.775 15.5043 24.8207C15.4375 24.8207 15.3742 24.8242 15.3074 24.8242C12.0027 24.8207 9.54883 23.0137 7.30938 21.0695C7.20039 20.9816 7.12305 20.8516 7.12305 20.7039C7.12305 20.5914 7.16875 20.4824 7.24961 20.4086C7.33047 20.3312 7.43945 20.2926 7.54844 20.2926ZM23.4109 19.6211C23.8363 19.6211 24.1879 19.6703 24.4305 19.7652C24.5113 19.8004 24.5852 19.832 24.666 19.9164L24.6766 19.927L24.6836 19.9375C24.7609 20.0535 24.7996 20.1941 24.8066 20.377L24.8102 20.4895C24.7961 21.1891 24.4973 22.4266 23.6359 23.2035C23.5445 23.2738 23.4391 23.3266 23.3125 23.3266C23.2246 23.3266 23.1262 23.2984 23.0488 23.2246C22.9715 23.1508 22.9328 23.0418 22.9328 22.9504C22.9328 22.8871 22.9469 22.8309 22.968 22.7781C23.0523 22.5531 23.1824 22.2121 23.2879 21.8746C23.3969 21.5371 23.4777 21.1891 23.4742 20.9992C23.4742 20.95 23.4707 20.9148 23.4637 20.9008C23.4602 20.8973 23.4566 20.8973 23.4496 20.8938C23.4285 20.8832 23.3934 20.8691 23.3441 20.8621C23.2457 20.841 23.1051 20.8305 22.9469 20.8305C22.7219 20.8305 22.4652 20.8516 22.2227 20.8762C21.9379 20.9148 21.6953 20.9395 21.5301 20.9746L21.516 20.9781H21.4984C21.4809 20.9816 21.4633 20.9816 21.4422 20.9816C21.3578 20.9816 21.2629 20.957 21.1785 20.8938C21.0977 20.827 21.0449 20.7145 21.0484 20.616C21.052 20.4367 21.1504 20.3172 21.2699 20.2293C21.4598 20.0922 21.6637 19.9762 21.8922 19.8812V19.8742L22.0855 19.8109L22.0926 19.8074L22.4336 19.6949V19.7195C22.7711 19.6492 23.1051 19.6211 23.4109 19.6211Z" fill="white"/>
</svg>
