<svg width="32" height="32" viewBox="0 0 32 32" fill="none" xmlns="http://www.w3.org/2000/svg">
<rect width="32" height="32" rx="16" fill="url(#paint0_linear_778_5943)"/>
<path d="M25.9967 16.011C26.1068 21.3889 21.5981 26.0078 16.0093 25.9968C10.4644 25.9858 6 21.4657 6 15.9891C6 10.5014 10.5197 5.99228 16.0203 6.00325C21.6204 6.00325 26.1402 10.677 25.9967 16.011ZM7.68651 16.011C7.53205 20.3661 11.3022 24.3252 15.9211 24.3471C20.562 24.3691 24.4093 20.7071 24.3984 15.9781C24.3874 11.1612 20.4408 7.64194 16.0093 7.63097C11.3904 7.63097 7.52108 11.5901 7.68651 16.011Z" fill="white"/>
<path d="M12.7245 15.9781C12.559 15.7033 12.3168 15.5273 12.118 15.3183C10.729 13.9105 11.1591 11.634 12.9558 10.8425C13.6171 10.5457 14.2013 10.9084 14.2013 11.6234C14.2122 14.5158 14.2122 17.4082 14.2013 20.3006C14.2013 21.1364 13.6281 21.4665 12.8676 21.1255C11.8424 20.6636 11.3022 19.8388 11.2583 18.7721C11.2144 17.8704 11.5892 17.0566 12.3164 16.4626C12.4489 16.3192 12.6253 16.209 12.7245 15.9781Z" fill="white"/>
<path d="M16.3951 16V20.0579C16.3951 20.223 16.3952 20.388 16.3622 20.5526C16.296 20.8718 16.0427 21.0807 15.7448 21.0917C15.4362 21.1027 15.1497 20.8718 15.0834 20.5417C15.0615 20.4315 15.0615 20.3217 15.0615 20.2116C15.0615 17.4623 15.0724 14.7239 15.0724 11.9742C15.0724 11.7653 15.0944 11.5673 15.1716 11.3803C15.2818 11.1165 15.5354 10.9514 15.822 10.9734C16.0866 10.9953 16.3403 11.2043 16.3842 11.4901C16.4061 11.6332 16.4061 11.7868 16.4061 11.9299C16.4061 13.2836 16.4061 14.6361 16.3951 16C16.4061 16 16.4061 16 16.3951 16Z" fill="white"/>
<path d="M17.2771 16V13.9215V13.7565C17.2991 13.2284 17.5527 12.9206 17.9494 12.9316C18.3462 12.9426 18.5998 13.2507 18.5998 13.7894C18.6108 15.274 18.5998 16.7476 18.5998 18.2323C18.5998 18.3091 18.5998 18.3754 18.5888 18.4522C18.5226 18.8481 18.225 19.112 17.8832 19.0791C17.5304 19.0461 17.2767 18.7823 17.2657 18.3754C17.2661 17.5729 17.2661 16.781 17.2771 16C17.2771 16 17.2661 16 17.2771 16Z" fill="white"/>
<path d="M19.4819 15.9781C19.4819 15.835 19.4709 15.6813 19.4819 15.5382C19.5258 15.2191 19.7136 15.0435 20.0221 14.9992C20.3416 14.9553 20.5733 15.0541 20.6945 15.3512C20.8709 15.7691 20.8709 16.209 20.7054 16.6379C20.5843 16.9456 20.3197 17.0558 19.9778 16.9899C19.6803 16.935 19.5148 16.748 19.4819 16.418C19.4596 16.2749 19.4819 16.1322 19.4819 15.9781Z" fill="white"/>
<defs>
<linearGradient id="paint0_linear_778_5943" x1="16" y1="0" x2="16" y2="32" gradientUnits="userSpaceOnUse">
<stop stop-color="#339EE0"/>
<stop offset="1" stop-color="#D73D98"/>
</linearGradient>
</defs>
</svg>
