<svg width="32" height="32" viewBox="0 0 32 32" fill="none" xmlns="http://www.w3.org/2000/svg">
<rect width="32" height="32" rx="16" fill="black"/>
<path fill-rule="evenodd" clip-rule="evenodd" d="M6.276 15.4914C6.276 15.4914 6.72746 15.4198 6.91377 15.6133C7.10009 15.8067 6.97827 16.208 6.72746 16.2152C6.48382 16.2224 6.25451 16.2654 6.08969 16.0934C5.93204 15.9214 5.97503 15.5774 6.276 15.4914ZM11.1775 18.236C11.1345 18.2432 11.0915 18.2217 11.0414 18.1858C10.7189 17.7344 10.6042 16.1937 10.4537 16.1005C10.3033 16.0074 9.74432 16.9533 8.6336 16.853C8.16781 16.81 7.69486 16.509 7.42255 16.3012C7.45122 15.9501 7.45122 15.1331 8.14632 15.3983C8.56911 15.5631 9.2857 16.0002 9.9163 15.2048C10.6114 14.3234 10.9984 14.5814 11.2277 14.7677C11.457 14.9612 11.3065 15.9572 11.6505 15.6778C11.9944 15.3983 13.3846 13.6713 13.3846 13.6713C13.3846 13.6713 14.4595 12.5892 14.6243 13.7286C14.7891 14.868 15.4914 16.1364 15.6777 16.1005C15.864 16.0647 18.0282 11.6648 18.3363 11.3782C18.6444 11.0916 19.6907 11.1345 19.6405 11.8583C19.5903 12.5892 19.4828 17.1109 19.4828 17.1109C19.4828 17.1109 19.361 18.3865 19.5617 17.7057C19.6477 17.4262 19.7336 17.1683 19.8411 16.8673C20.3786 15.1546 21.2887 12.2309 21.7401 10.7261C21.8476 10.3678 21.9336 10.0597 22.0053 9.81601C22.0339 9.70852 22.0626 9.61537 22.0841 9.54371C22.1199 9.41472 22.1486 9.32873 22.1557 9.30723C22.1772 9.2499 22.2346 9.20691 22.3134 9.17824C22.3922 9.12808 22.4782 9.12808 22.5785 9.12092C22.8293 9.09942 23.1518 9.12808 23.4456 9.21407C23.5316 9.21407 23.6248 9.24274 23.7107 9.30723C23.7107 9.30723 23.7179 9.30723 23.7251 9.3144C23.7251 9.3144 23.7322 9.3144 23.7322 9.32156C23.7537 9.33589 23.7824 9.35739 23.8111 9.40039C23.8111 9.40039 23.8111 9.40039 23.8111 9.40755C23.8254 9.42189 23.8397 9.44338 23.8541 9.47205C24.0189 9.70852 24.1192 10.1528 24.0189 10.9267C23.7681 12.8687 23.5746 16.8745 23.5746 16.8745C23.5746 16.8745 23.5388 17.0679 23.9401 16.2224C23.9544 16.1937 23.9687 16.165 23.9902 16.1435C24.0117 16.1292 24.0332 16.1077 24.069 16.0719C24.3199 15.7781 24.9791 15.6061 25.4449 15.6061C25.6384 15.6276 25.8032 15.6778 25.8964 15.7422C26.0755 16.0217 25.968 17.0465 25.968 17.0465C25.5811 17.0823 24.8501 17.2901 24.5922 17.3259C24.3342 17.3618 23.9401 19.0529 23.3883 18.8809C22.8365 18.709 21.6183 17.9422 21.6183 17.8347C21.6183 17.7415 21.7114 16.6237 21.7401 16.337C21.7401 16.3155 21.7401 16.3012 21.7473 16.2797C21.7473 16.2725 21.7473 16.2654 21.7473 16.2654C21.7616 16.0361 21.7473 15.9357 21.647 16.165C21.5538 16.3585 21.1597 17.6126 20.7225 18.9741C20.6796 19.0959 19.8483 21.604 19.7408 21.9121C19.6118 22.2704 19.5043 22.5356 19.4255 22.6789C19.3109 22.8365 19.1532 22.9297 18.9382 22.8652C18.4008 22.7004 17.72 21.9551 17.7129 21.776C17.6985 20.7369 17.763 15.1331 17.5122 15.5989C17.2542 16.079 15.2406 19.3969 15.2406 19.3969C15.2048 19.404 15.1833 19.404 15.1546 19.404C15.0113 19.3897 14.7891 19.3396 14.7318 19.2034C14.7318 19.1962 14.7247 19.1891 14.7247 19.1819C14.7247 19.1747 14.7175 19.1604 14.7103 19.1461C14.6817 19.0529 14.6745 18.9526 14.6458 18.8738C14.5527 18.5728 14.4094 18.1357 14.2589 17.6914C14.0296 16.9318 13.7859 16.1579 13.7501 16.079C13.6713 15.9142 13.5638 15.9859 13.4634 16.079C12.9977 16.4588 12.0446 18.1428 11.1775 18.236Z" fill="#FFA100"/>
</svg>
