<svg width="32" height="32" viewBox="0 0 32 32" fill="none" xmlns="http://www.w3.org/2000/svg">
<rect width="32" height="32" rx="16" fill="black"/>
<path d="M8.46801 12.019L4 19.981H6.29148L6.92112 18.8066H9.47018L9.64237 19.981H11.9906L10.8453 12.0195H8.46801V12.019ZM7.80928 17.2888L8.95502 15.1982L9.25529 17.2888H7.80928ZM28 19.981L26.8547 12.0195H24.4774L20.0094 19.981H22.3009L22.9591 18.8066H25.5115L25.6804 19.981H28ZM25.2792 17.2888H23.8187L24.993 15.1982L25.2966 17.3109L25.2792 17.2888ZM21.2982 12.019L18.8636 16.4293L18.4053 12.019H16.2006L14.3389 15.9714L13.7951 12.019H11.4182L12.5635 19.9805H14.8545L16.6876 16.0281L17.0892 19.9805H19.3797L23.8191 12.019H21.2982Z" fill="white"/>
</svg>
