<svg width="32" height="32" viewBox="0 0 32 32" fill="none" xmlns="http://www.w3.org/2000/svg">
<g clip-path="url(#clip0_778_5932)">
<rect width="32" height="32" rx="16" fill="black"/>
<path d="M16 32C24.8366 32 32 24.8366 32 16C32 7.16344 24.8366 0 16 0C7.16344 0 0 7.16344 0 16C0 24.8366 7.16344 32 16 32Z" fill="black"/>
<path d="M16.0974 1.36877C8.01411 1.36877 1.46057 7.92232 1.46057 16.0056C1.46057 24.089 8.01411 30.6425 16.0974 30.6425C24.1808 30.6425 30.7343 24.089 30.7343 16.0056C30.7343 7.92232 24.1808 1.36877 16.0974 1.36877ZM16.0974 29.6688C8.5515 29.6688 2.43424 23.5516 2.43424 16.0056C2.43424 8.45971 8.5515 2.34244 16.0974 2.34244C23.6434 2.34244 29.7606 8.45971 29.7606 16.0056C29.7606 23.5516 23.6434 29.6688 16.0974 29.6688Z" fill="url(#paint0_linear_778_5932)"/>
<path d="M22.0798 13.0313C23.0319 11.7767 23.5075 10.4567 23.5075 9.3098C23.5075 8.16293 23.1611 5.73999 18.6823 5.73999C17.2976 5.73999 15.0479 5.73999 15.0479 5.73999C14.4852 5.73999 13.7493 5.91319 13.3599 7.08159C13.3037 7.25011 13.1754 7.67328 12.9975 8.27902C13.945 8.23689 16.6366 8.1208 17.1029 8.1208C18.3527 8.1208 19.6831 9.76012 19.6831 11.2525C19.6831 12.1128 19.2449 12.9564 18.158 12.9564C17.071 12.9564 15.7079 11.5773 15.7079 9.95392C15.7079 9.1909 16.0159 8.88288 16.0159 8.88288L12.7953 8.96808C12.2355 10.8817 11.3713 13.8926 10.5905 16.6413C11.6222 16.5842 15.4626 16.3745 15.8699 16.3792C17.1684 16.3951 19.229 18.2938 19.229 20.6306C19.229 21.3121 18.8396 22.7399 17.2976 22.7399C15.7556 22.7399 13.9066 20.9873 13.9066 18.6832C13.9066 17.7423 14.2802 17.4175 14.2802 17.4175L10.3331 17.5532C9.57565 20.2308 8.94652 22.4899 8.83885 22.9618C8.55798 24.1948 9.29292 25.645 10.7862 25.645C12.2795 25.645 12.7335 25.645 13.7503 25.645C14.767 25.645 17.8827 25.4502 19.9162 23.4814C21.9497 21.5125 22.4262 19.5867 22.4262 18.4183C22.4262 17.2499 22.0367 15.4757 19.2674 14.8915C19.2665 14.8915 21.1277 14.2858 22.0798 13.0313Z" fill="url(#paint1_linear_778_5932)"/>
</g>
<defs>
<linearGradient id="paint0_linear_778_5932" x1="1.3956" y1="16.0059" x2="30.7989" y2="16.0059" gradientUnits="userSpaceOnUse">
<stop offset="0.1452" stop-color="#008BFF"/>
<stop offset="0.2481" stop-color="#0E98FB"/>
<stop offset="0.4435" stop-color="#34BAF2"/>
<stop offset="0.6935" stop-color="#6CEEE3"/>
<stop offset="0.9677" stop-color="#A0FECD"/>
</linearGradient>
<linearGradient id="paint1_linear_778_5932" x1="1.39553" y1="15.6922" x2="30.7988" y2="15.6922" gradientUnits="userSpaceOnUse">
<stop offset="0.1989" stop-color="#008BFF"/>
<stop offset="0.2726" stop-color="#0E98FB"/>
<stop offset="0.4124" stop-color="#34BAF2"/>
<stop offset="0.5914" stop-color="#6CEEE3"/>
<stop offset="0.6966" stop-color="#A2FECD"/>
<stop offset="0.7043" stop-color="#A6FFCB"/>
</linearGradient>
<clipPath id="clip0_778_5932">
<rect width="32" height="32" rx="16" fill="white"/>
</clipPath>
</defs>
</svg>
