<svg width="32" height="32" viewBox="0 0 32 32" fill="none" xmlns="http://www.w3.org/2000/svg">
<rect width="32" height="32" rx="16" fill="#A238FF"/>
<path fill-rule="evenodd" clip-rule="evenodd" d="M22.7741 10.0513C22.9591 8.97876 23.2306 8.30433 23.5314 8.30305H23.532C24.0929 8.30498 24.5475 10.6439 24.5475 13.5316C24.5475 16.4193 24.0923 18.7601 23.5308 18.7601C23.3006 18.7601 23.0882 18.3627 22.9172 17.6966C22.6469 20.1348 22.0861 21.8108 21.4369 21.8108C20.9345 21.8108 20.4837 20.804 20.181 19.2162C19.9744 22.2359 19.4543 24.3784 18.8463 24.3784C18.4648 24.3784 18.117 23.5294 17.8595 22.147C17.5498 25.0006 16.8344 27 16.0002 27C15.166 27 14.4493 25.0012 14.1409 22.147C13.8853 23.5294 13.5375 24.3784 13.1541 24.3784C12.5462 24.3784 12.0273 22.2359 11.8194 19.2162C11.5167 20.804 11.0671 21.8108 10.5635 21.8108C9.91496 21.8108 9.35349 20.1353 9.08324 17.6966C8.91347 18.3646 8.69981 18.7601 8.46963 18.7601C7.90816 18.7601 7.45288 16.4193 7.45288 13.5316C7.45288 10.6439 7.90816 8.30305 8.46963 8.30305C8.77103 8.30305 9.04064 8.9794 9.22758 10.0513C9.52708 8.20192 10.0135 6.99994 10.5635 6.99994C11.2166 6.99994 11.7825 8.69984 12.0502 11.1682C12.3122 9.37169 12.7096 8.22639 13.1547 8.22639C13.7785 8.22639 14.3088 10.479 14.5053 13.6211C14.8747 12.0101 15.4095 10.9994 16.0015 10.9994C16.5934 10.9994 17.1283 12.0108 17.497 13.6211C17.6942 10.479 18.2238 8.22639 18.8476 8.22639C19.2921 8.22639 19.6889 9.37169 19.9521 11.1682C20.2192 8.69984 20.7851 6.99994 21.4381 6.99994C21.9863 6.99994 22.4746 8.20256 22.7741 10.0513ZM6 13.0173C6 11.7265 6.25816 10.6797 6.57673 10.6797C6.8953 10.6797 7.15346 11.7265 7.15346 13.0173C7.15346 14.3082 6.8953 15.355 6.57673 15.355C6.25816 15.355 6 14.3082 6 13.0173ZM24.8465 13.0173C24.8465 11.7265 25.1047 10.6797 25.4233 10.6797C25.7418 10.6797 26 11.7265 26 13.0173C26 14.3082 25.7418 15.355 25.4233 15.355C25.1047 15.355 24.8465 14.3082 24.8465 13.0173Z" fill="white"/>
</svg>
