<svg width="32" height="32" viewBox="0 0 32 32" fill="none" xmlns="http://www.w3.org/2000/svg">
<g clip-path="url(#clip0_778_5962)">
<rect width="32" height="32" rx="16" fill="white"/>
<path d="M13.36 31.84C5.76 30.48 0 23.92 0 16C0 7.2 7.2 0 16 0C24.8 0 32 7.2 32 16C32 23.92 26.24 30.48 18.64 31.84L17.76 31.12H14.24L13.36 31.84Z" fill="url(#paint0_linear_778_5962)"/>
<path d="M22.2401 20.4801L22.9601 16.0001H18.7201V12.8801C18.7201 11.6001 19.2001 10.6401 21.1201 10.6401H23.2001V6.56005C22.0801 6.40005 20.8001 6.24005 19.6801 6.24005C16.0001 6.24005 13.4401 8.48005 13.4401 12.4801V16.0001H9.44006V20.4801H13.4401V31.7601C14.3201 31.9201 15.2001 32.0001 16.0801 32.0001C16.9601 32.0001 17.8401 31.9201 18.7201 31.7601V20.4801H22.2401Z" fill="white"/>
</g>
<defs>
<linearGradient id="paint0_linear_778_5962" x1="16.0008" y1="30.8871" x2="16.0008" y2="-0.00589422" gradientUnits="userSpaceOnUse">
<stop stop-color="#0062E0"/>
<stop offset="1" stop-color="#19AFFF"/>
</linearGradient>
<clipPath id="clip0_778_5962">
<rect width="32" height="32" rx="16" fill="white"/>
</clipPath>
</defs>
</svg>
