<svg width="32" height="32" viewBox="0 0 32 32" fill="none" xmlns="http://www.w3.org/2000/svg">
<rect width="32" height="32" rx="16" fill="#3F3FFF"/>
<path d="M10.36 11.4725V8.13646C10.6777 7.84318 11.7237 7.25662 13.3661 7.25662C15.419 7.25662 16.6655 7.98982 18.5351 7.98982C20.0309 7.98982 21.2357 7.32994 21.6512 7V10.1894C21.2235 10.5438 20.0015 11.2525 18.5351 11.2525C16.7021 11.2525 14.9791 10.4827 13.3661 10.4827C12.0757 10.4827 10.8243 11.1426 10.36 11.4725Z" fill="white"/>
<path d="M21.6146 16.8982V13.5621H14.9425C12.5596 13.5621 12.0463 14.112 11.1298 15.0285C10.3966 15.7617 10.3111 17.4847 10.36 18.2546V25H13.6594V18.7678C13.6349 18.5357 13.6374 17.9467 13.8427 17.4481C14.048 16.9495 14.9302 16.8737 15.3457 16.8982H21.6146Z" fill="white"/>
</svg>
