<svg width="32" height="32" viewBox="0 0 32 32" fill="none" xmlns="http://www.w3.org/2000/svg">
<rect width="32" height="32" rx="16" fill="#C6002B"/>
<path fill-rule="evenodd" clip-rule="evenodd" d="M24.1836 13.9894C24.1836 15.4738 23.3711 16.9347 21.7695 18.3331C21.6992 18.3956 21.6094 18.4269 21.5234 18.4269C21.4219 18.4269 21.3203 18.3839 21.2461 18.3019C21.1094 18.1495 21.125 17.9191 21.2773 17.7863C22.7109 16.5323 23.4414 15.255 23.4414 13.9894V13.9698C23.4414 12.9425 22.7891 11.7355 21.957 11.2238C21.7852 11.1144 21.7305 10.8917 21.8398 10.7198C21.9492 10.548 22.1797 10.4972 22.3516 10.6027C23.3945 11.2511 24.1836 12.6964 24.1836 13.9698V13.9894ZM19.293 16.5597C19.2344 16.5909 19.1719 16.6066 19.1094 16.6066C18.9766 16.6066 18.8477 16.5402 18.7773 16.4269C18.6758 16.255 18.7422 16.0402 18.9219 15.9464C19.8008 15.4855 20.3906 14.5948 20.3945 13.7238C20.3906 12.923 19.918 12.1964 19.1602 11.8214C18.9727 11.7316 18.9023 11.5167 19 11.3448C19.0977 11.173 19.3281 11.1066 19.5117 11.1964C20.5195 11.6925 21.1484 12.6573 21.1523 13.7198V13.7316C21.1484 14.8448 20.3984 15.9816 19.293 16.5597ZM16 16.0011C15.1641 16.0011 14.4844 15.3214 14.4844 14.4855C14.4844 13.6495 15.1641 12.9698 16 12.9698C16.8359 12.9698 17.5156 13.6495 17.5156 14.4855C17.5156 15.3214 16.8359 15.9972 16 16.0011ZM13.2227 16.423C13.1523 16.5402 13.0234 16.6027 12.8906 16.6027C12.8281 16.6027 12.7656 16.587 12.707 16.5558C11.5977 15.9777 10.8516 14.837 10.8477 13.7198V13.7081C10.8516 12.6456 11.4805 11.6808 12.4883 11.1847C12.6719 11.0948 12.9023 11.1613 13 11.3331C13.0977 11.505 13.0273 11.7198 12.8398 11.8097C12.0781 12.1847 11.6055 12.9113 11.6055 13.712C11.6094 14.5831 12.1992 15.4738 13.0781 15.9347C13.2617 16.0363 13.3281 16.255 13.2227 16.423ZM10.7539 18.3019C10.6797 18.3839 10.5781 18.4269 10.4766 18.4269C10.3906 18.4269 10.3008 18.3956 10.2305 18.3331C8.62891 16.9308 7.81641 15.4698 7.81641 13.9894V13.9698C7.81641 12.6964 8.60547 11.2472 9.64844 10.6027C9.82422 10.4972 10.0508 10.548 10.1602 10.7198C10.2695 10.8917 10.2188 11.1183 10.043 11.2238C9.21094 11.7394 8.55859 12.9464 8.55859 13.9698V13.9894C8.55859 15.2511 9.28516 16.5284 10.7227 17.7863C10.8789 17.9152 10.8906 18.1495 10.7539 18.3019ZM20.5547 8.72766C18.668 8.72766 16.9805 9.71204 16.0039 11.1495C15.0273 9.71204 13.3398 8.72766 11.4492 8.72766C8.4375 8.72766 6 11.1261 6 14.0831C6 15.962 7.21094 17.3136 8.47266 18.5675L13.4102 23.1613C13.668 23.4034 14.0938 23.2198 14.0938 22.8722V19.2941C14.0938 18.2589 14.9453 17.4191 16 17.4191C17.0508 17.4191 17.9062 18.2589 17.9062 19.2941V22.8722C17.9062 23.2238 18.332 23.4034 18.5898 23.1613L23.5273 18.5675C24.7891 17.3175 26 15.962 26 14.0831C26 11.1261 23.5625 8.72766 20.5547 8.72766Z" fill="white"/>
</svg>
