<svg width="32" height="32" viewBox="0 0 32 32" fill="none" xmlns="http://www.w3.org/2000/svg">
<rect width="32" height="32" rx="16" fill="black"/>
<path d="M17.4765 7.44295C17.4765 8.23988 16.8305 8.88591 16.0336 8.88591C15.2366 8.88591 14.5906 8.23988 14.5906 7.44295C14.5906 6.64603 15.2366 6 16.0336 6C16.8305 6 17.4765 6.64603 17.4765 7.44295Z" fill="#F6921E"/>
<path d="M20.7651 8.04698C20.7651 8.8439 20.1191 9.48993 19.3221 9.48993C18.5252 9.48993 17.8792 8.8439 17.8792 8.04698C17.8792 7.25006 18.5252 6.60403 19.3221 6.60403C20.1191 6.60403 20.7651 7.25006 20.7651 8.04698Z" fill="#F6921E"/>
<path d="M22.0738 11.3691C22.8707 11.3691 23.5168 10.7231 23.5168 9.92617C23.5168 9.12925 22.8707 8.48322 22.0738 8.48322C21.2769 8.48322 20.6309 9.12925 20.6309 9.92617C20.6309 10.7231 21.2769 11.3691 22.0738 11.3691Z" fill="#F6921E"/>
<path d="M25.396 12.6779C25.396 13.4748 24.7499 14.1208 23.953 14.1208C23.1561 14.1208 22.5101 13.4748 22.5101 12.6779C22.5101 11.8809 23.1561 11.2349 23.953 11.2349C24.7499 11.2349 25.396 11.8809 25.396 12.6779Z" fill="#F6921E"/>
<path d="M24.557 17.4094C25.354 17.4094 26 16.7634 26 15.9664C26 15.1695 25.354 14.5235 24.557 14.5235C23.7601 14.5235 23.1141 15.1695 23.1141 15.9664C23.1141 16.7634 23.7601 17.4094 24.557 17.4094Z" fill="#F6921E"/>
<path d="M25.396 19.255C25.396 20.052 24.7499 20.698 23.953 20.698C23.1561 20.698 22.5101 20.052 22.5101 19.255C22.5101 18.4581 23.1561 17.8121 23.953 17.8121C24.7499 17.8121 25.396 18.4581 25.396 19.255Z" fill="#F6921E"/>
<path d="M22.0738 23.4497C22.8707 23.4497 23.5168 22.8036 23.5168 22.0067C23.5168 21.2098 22.8707 20.5638 22.0738 20.5638C21.2769 20.5638 20.6309 21.2098 20.6309 22.0067C20.6309 22.8036 21.2769 23.4497 22.0738 23.4497Z" fill="#F6921E"/>
<path d="M20.7651 23.8859C20.7651 24.6828 20.1191 25.3289 19.3221 25.3289C18.5252 25.3289 17.8792 24.6828 17.8792 23.8859C17.8792 23.089 18.5252 22.443 19.3221 22.443C20.1191 22.443 20.7651 23.089 20.7651 23.8859Z" fill="#F6921E"/>
<path d="M12.745 25.3289C13.5419 25.3289 14.1879 24.6828 14.1879 23.8859C14.1879 23.089 13.5419 22.443 12.745 22.443C11.948 22.443 11.302 23.089 11.302 23.8859C11.302 24.6828 11.948 25.3289 12.745 25.3289Z" fill="#F6921E"/>
<path d="M11.4362 22.0067C11.4362 22.8036 10.7902 23.4497 9.99329 23.4497C9.19637 23.4497 8.55034 22.8036 8.55034 22.0067C8.55034 21.2098 9.19637 20.5638 9.99329 20.5638C10.7902 20.5638 11.4362 21.2098 11.4362 22.0067Z" fill="#F6921E"/>
<path d="M8.11409 20.698C8.91102 20.698 9.55705 20.052 9.55705 19.255C9.55705 18.4581 8.91102 17.8121 8.11409 17.8121C7.31717 17.8121 6.67114 18.4581 6.67114 19.255C6.67114 20.052 7.31717 20.698 8.11409 20.698Z" fill="#F6921E"/>
<path d="M8.88591 15.9664C8.88591 16.7634 8.23988 17.4094 7.44295 17.4094C6.64603 17.4094 6 16.7634 6 15.9664C6 15.1695 6.64603 14.5235 7.44295 14.5235C8.23988 14.5235 8.88591 15.1695 8.88591 15.9664Z" fill="#F6921E"/>
<path d="M8.11409 14.1208C8.91102 14.1208 9.55705 13.4748 9.55705 12.6779C9.55705 11.8809 8.91102 11.2349 8.11409 11.2349C7.31717 11.2349 6.67114 11.8809 6.67114 12.6779C6.67114 13.4748 7.31717 14.1208 8.11409 14.1208Z" fill="#F6921E"/>
<path d="M11.4362 9.92617C11.4362 10.7231 10.7902 11.3691 9.99329 11.3691C9.19637 11.3691 8.55034 10.7231 8.55034 9.92617C8.55034 9.12925 9.19637 8.48322 9.99329 8.48322C10.7902 8.48322 11.4362 9.12925 11.4362 9.92617Z" fill="#F6921E"/>
<path d="M12.745 9.48993C13.5419 9.48993 14.1879 8.8439 14.1879 8.04698C14.1879 7.25006 13.5419 6.60403 12.745 6.60403C11.948 6.60403 11.302 7.25006 11.302 8.04698C11.302 8.8439 11.948 9.48993 12.745 9.48993Z" fill="#F6921E"/>
<path d="M17.0108 10.1422C17.0108 10.6877 16.5685 11.1299 16.023 11.1299C15.4774 11.1299 15.0352 10.6877 15.0352 10.1422C15.0352 9.59661 15.4774 9.15436 16.023 9.15436C16.5685 9.15436 17.0108 9.59661 17.0108 10.1422Z" fill="#F6921E"/>
<path d="M18.2742 11.5434C18.8198 11.5434 19.262 11.1012 19.262 10.5557C19.262 10.0101 18.8198 9.56786 18.2742 9.56786C17.7287 9.56786 17.2864 10.0101 17.2864 10.5557C17.2864 11.1012 17.7287 11.5434 18.2742 11.5434Z" fill="#F6921E"/>
<path d="M21.1457 11.8421C21.1457 12.3876 20.7035 12.8299 20.1579 12.8299C19.6124 12.8299 19.1701 12.3876 19.1701 11.8421C19.1701 11.2965 19.6124 10.8543 20.1579 10.8543C20.7035 10.8543 21.1457 11.2965 21.1457 11.8421Z" fill="#F6921E"/>
<path d="M21.4444 14.7136C21.9899 14.7136 22.4321 14.2713 22.4321 13.7258C22.4321 13.1802 21.9899 12.738 21.4444 12.738C20.8988 12.738 20.4566 13.1802 20.4566 13.7258C20.4566 14.2713 20.8988 14.7136 21.4444 14.7136Z" fill="#F6921E"/>
<path d="M22.8456 15.977C22.8456 16.5226 22.4034 16.9648 21.8578 16.9648C21.3123 16.9648 20.87 16.5226 20.87 15.977C20.87 15.4315 21.3123 14.9892 21.8578 14.9892C22.4034 14.9892 22.8456 15.4315 22.8456 15.977Z" fill="#F6921E"/>
<path d="M21.4444 19.2161C21.9899 19.2161 22.4321 18.7738 22.4321 18.2283C22.4321 17.6827 21.9899 17.2405 21.4444 17.2405C20.8988 17.2405 20.4566 17.6827 20.4566 18.2283C20.4566 18.7738 20.8988 19.2161 21.4444 19.2161Z" fill="#F6921E"/>
<path d="M21.1457 20.112C21.1457 20.6575 20.7035 21.0998 20.1579 21.0998C19.6124 21.0998 19.1701 20.6575 19.1701 20.112C19.1701 19.5664 19.6124 19.1242 20.1579 19.1242C20.7035 19.1242 21.1457 19.5664 21.1457 20.112Z" fill="#F6921E"/>
<path d="M18.2742 22.3862C18.8198 22.3862 19.262 21.944 19.262 21.3984C19.262 20.8529 18.8198 20.4106 18.2742 20.4106C17.7287 20.4106 17.2864 20.8529 17.2864 21.3984C17.2864 21.944 17.7287 22.3862 18.2742 22.3862Z" fill="#F6921E"/>
<path d="M14.7595 21.3984C14.7595 21.944 14.3173 22.3862 13.7717 22.3862C13.2262 22.3862 12.7839 21.944 12.7839 21.3984C12.7839 20.8529 13.2262 20.4106 13.7717 20.4106C14.3173 20.4106 14.7595 20.8529 14.7595 21.3984Z" fill="#F6921E"/>
<path d="M11.888 21.0998C12.4336 21.0998 12.8758 20.6575 12.8758 20.112C12.8758 19.5664 12.4336 19.1242 11.888 19.1242C11.3425 19.1242 10.9002 19.5664 10.9002 20.112C10.9002 20.6575 11.3425 21.0998 11.888 21.0998Z" fill="#F6921E"/>
<path d="M11.5894 18.2283C11.5894 18.7738 11.1471 19.2161 10.6016 19.2161C10.056 19.2161 9.6138 18.7738 9.6138 18.2283C9.6138 17.6827 10.056 17.2405 10.6016 17.2405C11.1471 17.2405 11.5894 17.6827 11.5894 18.2283Z" fill="#F6921E"/>
<path d="M10.1422 16.9648C10.6877 16.9648 11.13 16.5226 11.13 15.977C11.13 15.4315 10.6877 14.9892 10.1422 14.9892C9.59661 14.9892 9.15436 15.4315 9.15436 15.977C9.15436 16.5226 9.59661 16.9648 10.1422 16.9648Z" fill="#F6921E"/>
<path d="M11.5894 13.7258C11.5894 14.2713 11.1471 14.7136 10.6016 14.7136C10.056 14.7136 9.6138 14.2713 9.6138 13.7258C9.6138 13.1802 10.056 12.738 10.6016 12.738C11.1471 12.738 11.5894 13.1802 11.5894 13.7258Z" fill="#F6921E"/>
<path d="M11.888 12.8299C12.4336 12.8299 12.8758 12.3876 12.8758 11.8421C12.8758 11.2965 12.4336 10.8543 11.888 10.8543C11.3425 10.8543 10.9002 11.2965 10.9002 11.8421C10.9002 12.3876 11.3425 12.8299 11.888 12.8299Z" fill="#F6921E"/>
<path d="M14.7595 10.5557C14.7595 11.1012 14.3173 11.5434 13.7717 11.5434C13.2262 11.5434 12.7839 11.1012 12.7839 10.5557C12.7839 10.0101 13.2262 9.56786 13.7717 9.56786C14.3173 9.56786 14.7595 10.0101 14.7595 10.5557Z" fill="#F6921E"/>
<path d="M16.0153 12.7533C16.379 12.7533 16.6738 12.4585 16.6738 12.0948C16.6738 11.7311 16.379 11.4362 16.0153 11.4362C15.6516 11.4362 15.3568 11.7311 15.3568 12.0948C15.3568 12.4585 15.6516 12.7533 16.0153 12.7533Z" fill="#F6921E"/>
<path d="M18.1747 12.3704C18.1747 12.7341 17.8798 13.029 17.5161 13.029C17.1524 13.029 16.8576 12.7341 16.8576 12.3704C16.8576 12.0067 17.1524 11.7119 17.5161 11.7119C17.8798 11.7119 18.1747 12.0067 18.1747 12.3704Z" fill="#F6921E"/>
<path d="M18.7719 13.8866C19.1356 13.8866 19.4305 13.5917 19.4305 13.2281C19.4305 12.8644 19.1356 12.5695 18.7719 12.5695C18.4083 12.5695 18.1134 12.8644 18.1134 13.2281C18.1134 13.5917 18.4083 13.8866 18.7719 13.8866Z" fill="#F6921E"/>
<path d="M20.2881 14.4839C20.2881 14.8476 19.9933 15.1424 19.6296 15.1424C19.2659 15.1424 18.971 14.8476 18.971 14.4839C18.971 14.1202 19.2659 13.8253 19.6296 13.8253C19.9933 13.8253 20.2881 14.1202 20.2881 14.4839Z" fill="#F6921E"/>
<path d="M19.9052 16.6432C20.2689 16.6432 20.5638 16.3484 20.5638 15.9847C20.5638 15.621 20.2689 15.3262 19.9052 15.3262C19.5415 15.3262 19.2467 15.621 19.2467 15.9847C19.2467 16.3484 19.5415 16.6432 19.9052 16.6432Z" fill="#F6921E"/>
<path d="M20.2881 17.4855C20.2881 17.8492 19.9933 18.144 19.6296 18.144C19.2659 18.144 18.971 17.8492 18.971 17.4855C18.971 17.1218 19.2659 16.827 19.6296 16.827C19.9933 16.827 20.2881 17.1218 20.2881 17.4855Z" fill="#F6921E"/>
<path d="M18.7719 19.3998C19.1356 19.3998 19.4305 19.105 19.4305 18.7413C19.4305 18.3776 19.1356 18.0828 18.7719 18.0828C18.4083 18.0828 18.1134 18.3776 18.1134 18.7413C18.1134 19.105 18.4083 19.3998 18.7719 19.3998Z" fill="#F6921E"/>
<path d="M18.1747 19.5989C18.1747 19.9626 17.8798 20.2575 17.5161 20.2575C17.1524 20.2575 16.8576 19.9626 16.8576 19.5989C16.8576 19.2352 17.1524 18.9404 17.5161 18.9404C17.8798 18.9404 18.1747 19.2352 18.1747 19.5989Z" fill="#F6921E"/>
<path d="M14.5145 20.2575C14.8782 20.2575 15.173 19.9626 15.173 19.5989C15.173 19.2352 14.8782 18.9404 14.5145 18.9404C14.1508 18.9404 13.8559 19.2352 13.8559 19.5989C13.8559 19.9626 14.1508 20.2575 14.5145 20.2575Z" fill="#F6921E"/>
<path d="M13.9172 18.7413C13.9172 19.105 13.6224 19.3998 13.2587 19.3998C12.895 19.3998 12.6001 19.105 12.6001 18.7413C12.6001 18.3776 12.895 18.0828 13.2587 18.0828C13.6224 18.0828 13.9172 18.3776 13.9172 18.7413Z" fill="#F6921E"/>
<path d="M12.4011 18.144C12.7648 18.144 13.0596 17.8492 13.0596 17.4855C13.0596 17.1218 12.7648 16.827 12.4011 16.827C12.0374 16.827 11.7425 17.1218 11.7425 17.4855C11.7425 17.8492 12.0374 18.144 12.4011 18.144Z" fill="#F6921E"/>
<path d="M12.7533 15.9847C12.7533 16.3484 12.4585 16.6432 12.0948 16.6432C11.7311 16.6432 11.4362 16.3484 11.4362 15.9847C11.4362 15.621 11.7311 15.3262 12.0948 15.3262C12.4585 15.3262 12.7533 15.621 12.7533 15.9847Z" fill="#F6921E"/>
<path d="M12.4011 15.1424C12.7648 15.1424 13.0596 14.8476 13.0596 14.4839C13.0596 14.1202 12.7648 13.8253 12.4011 13.8253C12.0374 13.8253 11.7425 14.1202 11.7425 14.4839C11.7425 14.8476 12.0374 15.1424 12.4011 15.1424Z" fill="#F6921E"/>
<path d="M13.9172 13.2281C13.9172 13.5917 13.6224 13.8866 13.2587 13.8866C12.895 13.8866 12.6001 13.5917 12.6001 13.2281C12.6001 12.8644 12.895 12.5695 13.2587 12.5695C13.6224 12.5695 13.9172 12.8644 13.9172 13.2281Z" fill="#F6921E"/>
<path d="M14.5145 13.029C14.8782 13.029 15.173 12.7341 15.173 12.3704C15.173 12.0067 14.8782 11.7119 14.5145 11.7119C14.1508 11.7119 13.8559 12.0067 13.8559 12.3704C13.8559 12.7341 14.1508 13.029 14.5145 13.029Z" fill="#F6921E"/>
<path d="M17.4765 24.5571C17.4765 25.354 16.8304 26 16.0335 26C15.2366 26 14.5906 25.354 14.5906 24.5571C14.5906 23.7601 15.2366 23.1141 16.0335 23.1141C16.8304 23.1141 17.4765 23.7601 17.4765 24.5571Z" fill="#034A9A"/>
<path d="M16.0229 22.8456C16.5685 22.8456 17.0107 22.4034 17.0107 21.8578C17.0107 21.3123 16.5685 20.8701 16.0229 20.8701C15.4774 20.8701 15.0351 21.3123 15.0351 21.8578C15.0351 22.4034 15.4774 22.8456 16.0229 22.8456Z" fill="#034A9A"/>
<path d="M18.0805 15.9664C18.0805 17.134 17.134 18.0805 15.9664 18.0805C14.7988 18.0805 13.8523 17.134 13.8523 15.9664C13.8523 14.7989 14.7988 13.8524 15.9664 13.8524C17.134 13.8524 18.0805 14.7989 18.0805 15.9664Z" fill="#034A9A"/>
<path d="M16.0153 20.5638C16.379 20.5638 16.6738 20.2689 16.6738 19.9052C16.6738 19.5415 16.379 19.2467 16.0153 19.2467C15.6516 19.2467 15.3567 19.5415 15.3567 19.9052C15.3567 20.2689 15.6516 20.5638 16.0153 20.5638Z" fill="#034A9A"/>
</svg>
