<svg width="32" height="32" viewBox="0 0 32 32" fill="none" xmlns="http://www.w3.org/2000/svg">
<g clip-path="url(#clip0_778_5921)">
<rect width="32" height="32" rx="16" fill="url(#paint0_linear_778_5921)"/>
<path d="M6.97816 28.6115C0.0505827 23.6269 -1.5265 13.9704 3.45556 7.04287C8.43734 0.115504 18.0924 -1.4596 25.0201 3.52499C31.9477 8.50937 33.5249 18.1659 28.5431 25.0936C23.561 32.021 13.9062 33.5961 6.97816 28.6115Z" fill="url(#paint1_linear_778_5921)"/>
<path fill-rule="evenodd" clip-rule="evenodd" d="M24.699 3.9675C18.0179 -0.83963 8.70655 0.678758 3.90126 7.36072L3.90125 7.36073C-0.905389 14.0443 0.61681 23.3608 7.2992 28.169C13.9806 32.9761 23.2916 31.4577 28.0973 24.7758C32.9037 18.0919 31.3814 8.77546 24.699 3.9675L25.0201 3.52498L24.699 3.9675ZM3.00976 6.72499C8.16801 -0.447782 18.1668 -2.07959 25.3412 3.08246C32.5139 8.24324 34.146 18.2398 28.9888 25.4115L28.9888 25.4115C23.8302 32.5843 13.8317 34.2161 6.65702 29.054L6.65701 29.054C-0.515752 23.893 -2.14772 13.8964 3.00976 6.72499Z" fill="url(#paint2_linear_778_5921)"/>
<path d="M21.5023 23.432C22.4807 23.1463 23.1715 22.4533 23.4542 21.4745L23.5376 21.1868L23.5486 13.4696C23.5567 7.69032 23.5488 5.71646 23.5166 5.60873C23.4827 5.49451 23.4289 5.39872 23.3585 5.32301C23.2549 5.25946 23.1304 5.22598 22.9893 5.2262C22.8921 5.2262 22.5543 5.27286 22.2392 5.32993C20.8453 5.58267 12.6288 7.21222 12.4884 7.2639C12.2713 7.34383 12.0562 7.53374 11.9542 7.73531L11.8677 7.90608C11.8677 7.90608 11.8268 20.0022 11.7639 20.1383C11.6682 20.3456 11.4557 20.5419 11.2598 20.6044C11.167 20.6342 10.8001 20.7162 10.4439 20.7866C8.79534 21.1133 8.18312 21.3487 7.6652 21.855C7.37104 22.1425 7.1532 22.535 7.05904 22.9468C6.96898 23.3404 6.9991 23.9295 7.12739 24.2877C7.26182 24.6623 7.4782 24.9822 7.76111 25.2339C8.01828 25.4313 8.32186 25.5782 8.66317 25.6654C9.4178 25.8578 10.8306 25.6438 11.5529 25.2277C11.8549 25.0537 12.2435 24.6889 12.4455 24.3887C12.5256 24.2699 12.6458 24.0308 12.7131 23.857C12.9484 23.2486 12.9557 12.4124 12.9858 12.2759C13.0368 12.0443 13.1958 11.8748 13.4149 11.8172C13.6123 11.7656 21.524 10.2079 21.7468 10.1769C21.9427 10.1498 22.1276 10.2126 22.2286 10.3365C22.2886 10.3685 22.3392 10.4117 22.3746 10.4648C22.4389 10.5601 22.4427 10.7485 22.4523 14.1793C22.4633 18.1281 22.4682 18.0356 22.2526 18.2848C22.0957 18.466 21.9001 18.5362 21.0959 18.6996C19.8724 18.9483 19.4538 19.0664 18.9851 19.2941C18.4001 19.5788 18.0752 19.8905 17.8241 20.4084C17.6465 20.7748 17.5802 21.0493 17.5807 21.4139C17.5817 22.066 17.8077 22.5754 18.3172 23.0741C18.3642 23.12 18.4103 23.1627 18.4568 23.2029C18.7134 23.4006 18.9752 23.5197 19.3043 23.5952C19.8007 23.709 20.8109 23.6341 21.5023 23.432Z" fill="url(#paint3_linear_778_5921)"/>
</g>
<defs>
<linearGradient id="paint0_linear_778_5921" x1="0" y1="0" x2="32" y2="32" gradientUnits="userSpaceOnUse">
<stop stop-color="#00DBDE"/>
<stop offset="1" stop-color="#FC00FF"/>
</linearGradient>
<linearGradient id="paint1_linear_778_5921" x1="6.26975" y1="4.0558" x2="25.6289" y2="28.1574" gradientUnits="userSpaceOnUse">
<stop stop-color="white"/>
<stop offset="0.5368" stop-color="#EEEEEE"/>
<stop offset="1" stop-color="#E5E5E5"/>
</linearGradient>
<linearGradient id="paint2_linear_778_5921" x1="5.9255" y1="3.63087" x2="25.9696" y2="28.5851" gradientUnits="userSpaceOnUse">
<stop stop-color="#FF5E4E"/>
<stop offset="0.1505" stop-color="#FF5C6D"/>
<stop offset="0.1694" stop-color="#FF5E73"/>
<stop offset="0.2476" stop-color="#FF6385"/>
<stop offset="0.3026" stop-color="#FF658C"/>
<stop offset="0.3685" stop-color="#E4729F"/>
<stop offset="0.4329" stop-color="#D17CAD"/>
<stop offset="0.4772" stop-color="#CA7FB2"/>
<stop offset="0.5528" stop-color="#9D6CFF"/>
<stop offset="0.5934" stop-color="#9870FF" stop-opacity="0.9882"/>
<stop offset="0.6432" stop-color="#897AFE" stop-opacity="0.9725"/>
<stop offset="0.6979" stop-color="#708CFE" stop-opacity="0.9529"/>
<stop offset="0.7556" stop-color="#4DA4FD" stop-opacity="0.9333"/>
<stop offset="0.8022" stop-color="#2CBCFC" stop-opacity="0.9176"/>
<stop offset="1" stop-color="#00C7FF"/>
</linearGradient>
<linearGradient id="paint3_linear_778_5921" x1="6.73629" y1="3.89007" x2="25.3067" y2="28.0952" gradientUnits="userSpaceOnUse">
<stop stop-color="#FF5E4E"/>
<stop offset="0.249" stop-color="#FF5C6D"/>
<stop offset="0.3765" stop-color="#FF658C"/>
<stop offset="0.497" stop-color="#CA7FB2"/>
<stop offset="0.6267" stop-color="#9D6CFF"/>
<stop offset="0.7628" stop-color="#2CBCFC" stop-opacity="0.9176"/>
<stop offset="1" stop-color="#00C7FF"/>
</linearGradient>
<clipPath id="clip0_778_5921">
<rect width="32" height="32" rx="16" fill="white"/>
</clipPath>
</defs>
</svg>
