<svg width="32" height="32" viewBox="0 0 32 32" fill="none" xmlns="http://www.w3.org/2000/svg">
<rect width="32" height="32" rx="16" fill="black"/>
<path d="M14.5465 6.10396C16.2718 5.85662 18.0649 6.04844 19.6847 6.70017C22.0605 7.63065 24.0387 9.5135 25.0965 11.8338C25.9855 13.7576 26.2188 15.9663 25.7948 18.0393C25.3803 20.031 24.3438 21.8919 22.853 23.2778C22.7852 23.3463 22.6999 23.4192 22.7151 23.5269C22.7089 24.2683 22.7162 25.0098 22.7134 25.7513C21.7913 25.6055 20.8799 25.3974 19.9606 25.237C19.7374 25.2364 19.54 25.3677 19.3302 25.4293C17.7979 25.9756 16.1304 26.1299 14.5224 25.8915C12.5768 25.6071 10.7248 24.7255 9.2749 23.3984C7.97705 22.2223 6.99608 20.6995 6.46774 19.0298C5.80423 16.9428 5.84461 14.6348 6.60179 12.5792C7.20192 10.919 8.25692 9.42825 9.61535 8.30258C11.0153 7.13484 12.7416 6.36421 14.5465 6.10396ZM19.2304 8.05019C19.4794 8.23808 19.7537 8.38895 20.0049 8.57348C20.8457 9.17585 21.632 9.85731 22.3376 10.6145C23.0415 11.3644 23.6585 12.1911 24.2294 13.0453C23.7476 11.2202 22.5625 9.54659 20.8855 8.6419C20.3656 8.36988 19.817 8.12646 19.2304 8.05019ZM19.3818 9.28186C19.5843 9.44732 19.8126 9.57632 20.0229 9.73C20.9371 10.3924 21.7526 11.1894 22.4419 12.0828C22.6736 12.3812 22.8727 12.7026 23.1032 13.0021C22.8637 12.1008 22.3987 11.2567 21.7504 10.5853C21.107 9.94088 20.2865 9.44059 19.3818 9.28186ZM19.2876 10.4687C19.9404 10.9247 20.5866 11.4087 21.093 12.0301C21.3987 12.3638 21.6522 12.7391 21.9203 13.102C21.7924 12.6695 21.6174 12.2466 21.3589 11.8753C20.8805 11.1669 20.1317 10.6319 19.2876 10.4687ZM15.4473 11.0009C14.5662 11.0974 13.7092 11.4334 13.0002 11.9667C12.0927 12.6336 11.4264 13.6208 11.1415 14.71C10.8728 15.7179 10.925 16.8121 11.3002 17.7869C11.6508 18.7084 12.2784 19.5234 13.0838 20.0927C13.9357 20.7091 14.9885 21.0355 16.0385 21.0265C17.1226 21.0231 18.2023 20.6518 19.0593 19.9878C20.0464 19.2429 20.7296 18.1139 20.95 16.8985C21.1267 15.9052 21.0067 14.8569 20.5871 13.9377C20.1065 12.8647 19.2354 11.9712 18.1742 11.4653C17.3329 11.0565 16.3761 10.9017 15.4473 11.0009ZM7.68595 18.8167C7.94564 20.2273 8.78638 21.4892 9.88008 22.3978C10.7006 23.0552 11.658 23.5544 12.6777 23.8146C12.1965 23.4736 11.6928 23.1612 11.2402 22.7798C10.0781 21.8521 9.04158 20.7663 8.18457 19.5503C8.01238 19.3097 7.86824 19.05 7.68595 18.8167ZM8.92211 18.9709C9.02756 19.5963 9.3136 20.179 9.67537 20.695C10.3809 21.6861 11.4645 22.3765 12.6317 22.6906C12.3485 22.4607 12.0333 22.2733 11.7461 22.0479C10.7029 21.2464 9.78417 20.2761 9.07131 19.1689C9.02419 19.1005 8.97371 19.0349 8.92211 18.9709ZM10.1448 18.953C10.2088 19.3893 10.4202 19.7898 10.6754 20.1431C11.1729 20.8246 11.9295 21.2884 12.7372 21.5072C12.5072 21.3238 12.2559 21.1684 12.0237 20.9867C11.5358 20.5991 11.0843 20.1644 10.6956 19.6765C10.4976 19.446 10.3529 19.1751 10.1448 18.953Z" fill="#56BB73"/>
<path d="M15.6683 14.7537C16.025 14.6533 16.4344 14.701 16.7328 14.9304C17.1277 15.2114 17.3161 15.7437 17.1871 16.2103C17.0603 16.7196 16.5679 17.1116 16.0407 17.0993C15.5701 17.1189 15.1124 16.8183 14.9262 16.3898C14.7709 16.0454 14.7894 15.6259 14.9834 15.3006C15.1343 15.0426 15.385 14.8463 15.6683 14.7537Z" fill="#56BB73"/>
</svg>
