<svg width="32" height="32" viewBox="0 0 32 32" fill="none" xmlns="http://www.w3.org/2000/svg">
<rect width="32" height="32" rx="16" fill="#09CEF5"/>
<path fill-rule="evenodd" clip-rule="evenodd" d="M8.69032 22.8135L14.9964 25.7327C15.6667 26.1029 16.5008 26.0873 17.1555 25.6937L23.3407 22.7316C24.1046 22.3692 24.4359 21.5273 24.4359 20.8063V13.6234C24.4359 12.8595 24.0696 12.0995 23.3914 11.776L16.9217 8.8685V6L8.69032 11.698C7.9693 12.1384 7.56396 12.6997 7.56396 13.4207V21.161C7.59125 21.8703 8.02386 22.5056 8.69032 22.8135ZM11.2938 12.2515H12.5877C12.919 12.2515 13.1918 12.5204 13.1918 12.8556V21.0246C13.1918 21.3559 12.9229 21.6287 12.5877 21.6287H11.2938C10.9625 21.6287 10.6897 21.3598 10.6897 21.0246V12.8556C10.6897 12.5204 10.9586 12.2515 11.2938 12.2515ZM14.439 16.8465V16.6283V16.6283V16.6244V16.5659L18.4494 12.7503C18.8586 12.3996 19.3887 12.2242 19.9304 12.2554H21.6102C22.1442 12.2554 21.8714 12.5477 21.8714 12.5477L17.6582 16.6283H17.6238L17.6076 16.6477L21.9025 21.3013C21.9025 21.3013 22.0974 21.6287 21.5712 21.6287H19.8291C19.3614 21.6287 18.9015 21.4767 18.5157 21.1882L14.439 16.8465Z" fill="white"/>
</svg>
