<svg width="32" height="32" viewBox="0 0 32 32" fill="none" xmlns="http://www.w3.org/2000/svg">
<rect width="32" height="32" rx="16" fill="url(#paint0_linear_778_5951)"/>
<path d="M4 10.7807L4.60432 22.4193L28 21.2193L27.3957 9.58075L4 10.7807ZM27.3078 20.5943L5.22784 21.7271L4.69216 11.4047L26.7722 10.2719L27.3078 20.5943ZM6.43888 12.9955L7.70032 12.9292L8.00896 18.815L9.99328 18.7108L10.0504 19.7961L6.80464 19.9665L6.43888 12.9955ZM10.4037 12.7876L11.6747 12.7209L12.04 19.6919L10.768 19.7567L10.4037 12.7876ZM12.736 17.9889L12.544 14.3227C12.4854 13.2081 13.3024 12.5279 14.3978 12.4703C15.424 12.4166 16.2376 12.9719 16.2918 14.0063L16.3398 14.9255L15.196 14.9855L15.1542 14.1839C15.1331 13.7831 14.8662 13.5422 14.4549 13.5638C13.9955 13.5878 13.805 13.882 13.8266 14.2924L14.0133 17.8511C14.0378 18.3206 14.2955 18.562 14.7256 18.5395C15.1264 18.5183 15.3669 18.2414 15.3462 17.8502L15.305 17.0582L16.4488 16.9982L16.4939 17.8588C16.5491 18.9148 15.8219 19.5998 14.7659 19.655C13.6403 19.7159 12.7974 19.162 12.736 17.9889ZM16.949 12.4444L18.22 12.3782L18.3851 15.526L19.6379 12.3038L20.8792 12.2385L19.7603 15.0129L21.2742 19.2081L19.925 19.2767L18.8877 16.1351L18.4643 17.0395L18.5853 19.3468L17.3142 19.4135L16.949 12.4444ZM23.356 12.1219L21.4106 12.2241L21.7758 19.1947L23.7117 19.0934C24.7576 19.0387 25.5405 18.4483 25.4786 17.2655L25.2894 13.6579C25.2314 12.5529 24.3923 12.0676 23.356 12.1219ZM24.1941 17.2641C24.2118 17.6063 24.0554 17.987 23.547 18.0139L22.9802 18.0436L22.7277 13.2331L23.285 13.2043C23.765 13.1788 23.9949 13.4611 24.015 13.8523L24.1941 17.2641Z" fill="white"/>
<defs>
<linearGradient id="paint0_linear_778_5951" x1="0" y1="16" x2="32" y2="16" gradientUnits="userSpaceOnUse">
<stop stop-color="#5105F5"/>
<stop offset="1" stop-color="#FD0652"/>
</linearGradient>
</defs>
</svg>
