<svg width="32" height="32" viewBox="0 0 32 32" fill="none" xmlns="http://www.w3.org/2000/svg">
<rect width="32" height="32" rx="16" fill="#4F00FF"/>
<path d="M24.0332 16.9677L27 19.1037V17.7892L24.4805 16.0091L26.9909 14.2291V12.9054L24.0241 15.0506H23.7046L20.756 12.9054V14.2199L23.2664 16.0091L20.7651 17.7892V19.1037L23.7228 16.9677H24.0332ZM13.5261 16.5751H19.7884V15.434H13.5261V16.5751ZM11.1801 19.1311H12.3212V12.8689H10.0664L8.80664 18.839H8.51452L7.25477 12.8689H5V19.1311H6.14108V13.9096L5.94025 13.161H6.29627L7.61992 19.1311H9.7195L11.034 13.161H11.3992L11.1892 13.9096V19.1311H11.1801Z" fill="#F3B2A6"/>
</svg>
