<svg width="32" height="32" viewBox="0 0 32 32" fill="none" xmlns="http://www.w3.org/2000/svg">
<rect width="32" height="32" rx="16" fill="#2159FE"/>
<path d="M23.5841 9.34247C23.3886 9.34247 23.193 9.34247 22.9975 9.36986H22.9696L22.9416 9.34247C21.2935 7.26027 18.6957 6 16.014 6C13.3324 6 10.7065 7.26027 9.08638 9.36986L9.05844 9.39726H9.03051C8.83497 9.36986 8.63943 9.36986 8.44389 9.36986H7.2148V11.5068L7.18686 11.5342C6.04157 12.0548 5.28735 13.2055 5.28735 14.4658C5.28735 15.726 6.04157 16.8767 7.18686 17.3973H7.24273V17.4521C7.27066 22.1644 11.2094 26 16.014 26C20.8186 26 24.7574 22.1644 24.7853 17.4521V17.3973L24.8132 17.3699C25.9585 16.8219 26.7127 15.6712 26.7127 14.4383C26.7127 13.1781 25.9585 12.0274 24.8132 11.5068L24.7853 11.4794V9.34247H23.5841ZM11.377 10.0548C12.6061 8.84932 14.2821 8.16438 16.014 8.16438C17.7459 8.16438 19.422 8.84932 20.651 10.0548L20.7069 10.1096L20.6231 10.1644C20.2879 10.3562 19.9806 10.5479 19.6734 10.7671L19.6454 10.7945L19.6175 10.7671C18.8074 10.3562 17.5225 9.89041 16.042 9.89041C14.5615 9.89041 13.2765 10.3562 12.4664 10.7671L12.4385 10.7945L12.4105 10.7671C12.1032 10.5479 11.768 10.3288 11.4607 10.1644L11.2932 10.1096L11.377 10.0548ZM22.383 17.3699C22.383 20.8219 19.5057 23.6438 15.9861 23.6438C12.4664 23.6438 9.61712 20.8219 9.61712 17.3699V11.9452L9.70093 11.9726C10.8183 12.2466 11.8798 13.4521 12.1312 13.7534C12.4105 13.4521 13.7234 12.2739 16.014 12.2739C18.3046 12.2739 19.6175 13.4794 19.8969 13.7534C20.1482 13.4521 21.1818 12.2466 22.3271 11.9726L22.4109 11.9452V17.3699H22.383Z" fill="#FCFCFC"/>
</svg>
