<svg width="32" height="32" viewBox="0 0 32 32" fill="none" xmlns="http://www.w3.org/2000/svg">
<rect width="32" height="32" rx="16" fill="#EE2314"/>
<path d="M15.8947 8.9053C16.0125 7.25352 17.63 5.92081 19.2562 6.00367C20.1986 6.02834 21.1233 6.40647 21.8485 7.00408C22.3329 7.38221 22.5078 8.13759 22.1835 8.66996C21.8099 9.20851 20.9827 9.18031 20.5027 8.8057C20.057 8.45842 19.4883 8.14728 18.9072 8.27244C18.3991 8.39055 18.1627 8.96524 18.2444 9.44385C18.327 9.92511 18.4844 10.3887 18.6092 10.8603C19.5296 10.9 20.4491 11.1362 21.2587 11.5813C22.6072 12.3587 23.7614 13.5213 24.3969 14.9563C25.0044 16.289 25.1327 17.8068 24.891 19.2426C24.549 21.1077 23.4783 22.8062 22.0226 24.0032C20.3717 25.3588 18.2172 26.019 16.0969 25.9996C14.1067 25.9996 12.135 25.2839 10.5817 24.0411C8.50184 22.3972 7.16303 19.8446 7.01535 17.1915C6.88525 15.3362 7.35818 13.4508 8.30844 11.8572C9.39935 10.0132 11.132 8.55714 13.1406 7.81939C13.487 7.70481 13.8869 7.70922 14.2087 7.89255C14.7106 8.1561 14.9207 8.87093 14.6086 9.35395C14.4399 9.6598 14.1313 9.85636 13.8087 9.96742C12.1587 10.6047 10.7698 11.8845 9.99096 13.4755C9.34925 14.7518 9.12597 16.2255 9.32903 17.6375C9.58659 19.4938 10.6019 21.2293 12.0893 22.3646C13.2751 23.276 14.7704 23.7952 16.2683 23.7528C17.9868 23.7476 19.7423 23.1447 20.9827 21.9265C21.8749 21.0407 22.5412 19.8808 22.6863 18.6159C22.8955 17.2506 22.5307 15.7918 21.6156 14.7447C20.9792 14.0334 20.1845 13.4067 19.2386 13.1855C19.461 13.8677 19.665 14.5561 19.8584 15.2471C20.1265 16.2687 20.137 17.411 19.6193 18.3585C19.0663 19.4259 17.9868 20.2025 16.7975 20.3699C15.6723 20.5665 14.468 20.1752 13.6549 19.3739C12.8716 18.6291 12.4224 17.56 12.3846 16.4829C12.3064 15.4613 12.52 14.4089 13.0545 13.5292C13.7665 12.3243 15.0033 11.4923 16.3342 11.1177C16.1672 10.3861 15.842 9.67038 15.8947 8.9053ZM14.7466 15.2392C14.5023 16.11 14.5805 17.1942 15.2934 17.8279C15.9589 18.4352 17.1157 18.1884 17.5552 17.4269C17.8304 17.0012 17.8357 16.4644 17.7363 15.9831C17.4911 15.0717 17.2089 14.17 16.9206 13.271C15.965 13.5707 15.0341 14.2335 14.7466 15.2392Z" fill="white"/>
</svg>
