<svg width="32" height="32" viewBox="0 0 32 32" fill="none" xmlns="http://www.w3.org/2000/svg">
<rect width="32" height="32" rx="16" fill="url(#paint0_linear_778_5942)"/>
<path fill-rule="evenodd" clip-rule="evenodd" d="M9.41614 14.3156C8.9454 15.0628 8.62279 16.0151 8.45631 16.681C8.28932 17.349 7.61249 17.7551 6.94456 17.5881C6.27663 17.4211 5.87053 16.7443 6.03752 16.0763C6.23671 15.2796 6.63963 14.0453 7.30664 12.9866C7.94523 11.973 9.06037 10.7692 10.7495 10.8193C12.2595 10.8642 13.3242 11.726 13.9915 12.6062C14.6502 13.4749 15.0204 14.477 15.1713 15.1638C15.1738 15.1751 15.1761 15.1866 15.1783 15.198C15.2956 15.8136 15.5647 16.7562 15.9662 17.5415C16.1665 17.9331 16.3747 18.2359 16.5733 18.437C16.7708 18.6368 16.8992 18.6778 16.9538 18.6859C16.9543 18.686 16.9549 18.6861 16.9556 18.6863C16.967 18.6887 17.0071 18.697 17.1195 18.6138C17.2631 18.5075 17.4474 18.3014 17.6497 17.9697C18.0542 17.3065 18.3554 16.4389 18.5457 15.8153C18.7054 15.292 19.1877 14.934 19.7349 14.9326C20.2821 14.9312 20.7662 15.2868 20.9285 15.8094C21.0218 16.1095 21.243 16.5847 21.5519 16.961C21.8726 17.3518 22.1244 17.4487 22.2745 17.4509C22.7143 17.4574 23.0096 17.28 23.2114 17.0394C23.4418 16.7646 23.5184 16.4425 23.506 16.268C23.4569 15.5813 23.9739 14.9848 24.6606 14.9358C25.3473 14.8867 25.9438 15.4037 25.9929 16.0904C26.1091 17.7171 24.8057 19.9816 22.2378 19.9439C21.2666 19.9296 20.5105 19.4508 19.9746 18.9258C19.9119 19.0416 19.8465 19.156 19.7782 19.268C19.2631 20.1125 18.2229 21.3944 16.5884 21.1522C15.8351 21.0406 15.2407 20.6354 14.8 20.1895C14.3605 19.7448 14.0152 19.2024 13.7463 18.6765C13.214 17.6354 12.8833 16.4646 12.7328 15.6839C12.6401 15.2729 12.3981 14.6313 12.0048 14.1126C11.6155 13.599 11.18 13.3264 10.6755 13.3115C10.3501 13.3018 9.91529 13.5233 9.41614 14.3156Z" fill="white"/>
<path fill-rule="evenodd" clip-rule="evenodd" d="M19.3681 14.9887C20.0255 14.7844 20.7241 15.1519 20.9284 15.8093C21.0217 16.1095 21.2429 16.5846 21.5518 16.961C21.8725 17.3518 22.1243 17.4487 22.2744 17.4509C22.7142 17.4574 23.0095 17.2799 23.2113 17.0393C23.4417 16.7645 23.5183 16.4425 23.5059 16.268C23.4568 15.5813 23.9738 14.9848 24.6605 14.9358C25.3472 14.8867 25.9437 15.4036 25.9928 16.0904C26.109 17.7171 24.8056 19.9816 22.2378 19.9438C21.0315 19.9261 20.1573 19.1919 19.6244 18.5426C19.0798 17.8789 18.7201 17.1049 18.5474 16.5491C18.3432 15.8916 18.7106 15.193 19.3681 14.9887Z" fill="white"/>
<defs>
<linearGradient id="paint0_linear_778_5942" x1="0" y1="16" x2="32" y2="16" gradientUnits="userSpaceOnUse">
<stop stop-color="#F2FB24"/>
<stop offset="0.505208" stop-color="#7BE96C"/>
<stop offset="1" stop-color="#6E74F9"/>
</linearGradient>
</defs>
</svg>
