<svg width="32" height="32" viewBox="0 0 32 32" fill="none" xmlns="http://www.w3.org/2000/svg">
<rect width="32" height="32" rx="16" fill="black"/>
<path d="M20.7706 10.81L22.2135 8.29641C22.6325 7.57493 22.3765 6.62071 21.655 6.20178C20.9335 5.78285 19.9793 6.03886 19.5603 6.76035L18.1174 9.27391C15.0452 8.29641 11.5775 9.55319 9.90176 12.4857C8.83117 14.3476 8.69153 16.4655 9.3432 18.3506L12.0197 13.7192C12.6248 12.6486 13.6256 11.9038 14.8125 11.578C15.9995 11.2522 17.233 11.4151 18.3036 12.0435C20.4913 13.3003 21.2593 16.1396 19.9793 18.3274C18.7225 20.5151 15.9064 21.2831 13.6954 20.0031L15.2314 17.3266C15.9529 17.7455 16.9071 17.4895 17.3261 16.768C17.745 16.0233 17.489 15.0923 16.7675 14.6734C16.046 14.2545 15.0918 14.5105 14.6729 15.232L9.7854 23.7036C9.36647 24.4483 9.62248 25.3793 10.344 25.7982C11.0654 26.2171 12.0197 25.9611 12.4386 25.2397L13.8816 22.7261C16.9537 23.7036 20.4215 22.4468 22.0972 19.5143C23.7962 16.6051 23.1445 12.9977 20.7706 10.81Z" fill="white"/>
</svg>
