<svg width="32" height="32" viewBox="0 0 32 32" fill="none" xmlns="http://www.w3.org/2000/svg">
<rect width="32" height="32" rx="16" fill="#2FB45A"/>
<path fill-rule="evenodd" clip-rule="evenodd" d="M23.1526 19.7285C21.0924 20.4173 18.9273 21.0655 17.1928 22.9293C16.9333 23.2438 17.2631 23.4703 17.4064 23.4703C18.7996 23.4703 20.7896 23.4703 20.7896 23.4703C22.3791 23.4703 23.4699 22.3016 23.4699 20.7153C23.4699 20.7153 23.4699 20.6679 23.4699 20.0104C23.4703 19.9321 23.4225 19.6486 23.1526 19.7285ZM20.7896 8.52972C20.7896 8.52972 18.7353 8.52972 17.6526 8.52972C17.5161 8.52972 17.3394 8.65141 17.3679 8.8743C18.4165 15.2667 15.7787 21.5092 15.2217 22.7329C15.1422 22.9317 15.1217 22.8687 15.1177 22.7373C14.3277 16 13.0502 13.1723 11.0012 8.70402C10.9205 8.56787 10.8044 8.53695 10.6703 8.53293C9.99237 8.53293 8.52932 9.07108 8.52932 11.2382C8.52932 11.2382 8.52932 12.5048 8.52932 13.2088C8.53092 13.3871 8.60241 13.443 8.67028 13.4948C12.9679 16.5602 14.1096 20.706 14.4349 23.1209C14.4783 23.3924 14.5189 23.4679 14.7108 23.4703H15.6691C15.8691 23.4703 15.9064 23.3333 15.9703 23.1542C16.6181 20.9534 18.443 16.8161 23.3024 14.2835C23.4518 14.2032 23.4703 14.0783 23.4703 14.01C23.4703 13.2257 23.4703 11.2382 23.4703 11.2382C23.4703 9.62008 22.3767 8.52972 20.7896 8.52972ZM8.86185 20.239C8.58755 20.1855 8.52972 20.4606 8.52972 20.5341V20.7153C8.52972 22.4659 9.61406 23.4703 11.2373 23.4703C11.2373 23.4703 12.2542 23.4703 13.3161 23.4703C13.5711 23.4695 13.7 23.1663 13.5526 22.9582C12.2655 21.255 10.5056 20.745 8.86185 20.239ZM24.7149 18.6382C24.7149 20.388 24.7149 21.4972 24.4169 22.439C24.0426 23.4671 23.4671 24.0426 22.439 24.4169C21.4972 24.7149 20.388 24.7149 18.6382 24.7149H13.3614C11.6116 24.7149 10.5024 24.7149 9.56064 24.4169C8.53253 24.0426 7.95703 23.4671 7.58273 22.439C7.28474 21.4972 7.28474 20.388 7.28474 18.6382V13.3618C7.28474 11.612 7.28474 10.5028 7.58273 9.56104C7.95703 8.53293 8.53253 7.95743 9.56064 7.58313C10.5024 7.28514 11.6116 7.28514 13.3614 7.28514H18.6378C20.3876 7.28514 21.4968 7.28514 22.4386 7.58313C23.4667 7.95743 24.0422 8.53293 24.4165 9.56104C24.7145 10.5028 24.7145 11.612 24.7145 13.3618L24.7149 18.6382ZM25.6578 8.88032C25.2285 7.7004 24.2992 6.77108 23.1193 6.34177C22.0386 6 21.0345 6 19.0269 6H12.9727C10.9651 6 9.96104 6 8.88032 6.34177C7.7004 6.77108 6.77068 7.7004 6.34177 8.88032C6 9.96104 6 10.9651 6 12.9727V19.0273C6 21.0349 6 22.039 6.34177 23.1197C6.77108 24.2996 7.7004 25.2289 8.88032 25.6582C9.96104 26 10.9651 26 12.9727 26H19.0273C21.0349 26 22.039 26 23.1197 25.6582C24.2996 25.2289 25.2289 24.2996 25.6582 23.1197C26 22.039 26 21.0349 26 19.0273V12.9727C26 10.9651 26 9.96104 25.6578 8.88032Z" fill="white"/>
</svg>
