<svg width="32" height="32" viewBox="0 0 32 32" fill="none" xmlns="http://www.w3.org/2000/svg">
<rect width="32" height="32" rx="16" fill="#4CCDFE"/>
<path d="M18.461 26C18.2349 26.0003 18.011 25.9547 17.8031 25.8658C17.5951 25.7769 17.4074 25.6466 17.2514 25.4829C16.6119 24.8142 16.6364 23.7572 17.3037 23.1182C17.3282 23.0937 19.7844 20.7456 21.0769 19.3179C21.6886 18.6437 21.9955 17.7782 21.9411 16.8848C21.8835 15.9378 21.4269 15.0497 20.6539 14.383C19.6393 13.5062 17.6351 13.3113 16.3819 14.4353C15.6356 15.1033 14.7308 16.0862 14.7222 16.0967C14.0953 16.7762 13.0381 16.8199 12.3582 16.1962C11.6788 15.5712 11.6325 14.5122 12.2581 13.8328C12.2998 13.7871 13.2808 12.7207 14.1491 11.9433C16.529 9.80911 20.4286 9.76683 22.8412 11.8504C24.3019 13.1117 25.1681 14.8282 25.2815 16.6819C25.3915 18.4819 24.7771 20.2176 23.5564 21.5671C22.1825 23.0809 19.7197 25.4358 19.6155 25.537C19.3047 25.8343 18.8911 26.0001 18.461 26ZM13.4411 21.6861C11.8923 21.6861 10.3461 21.1744 9.15836 20.1484C7.69834 18.8879 6.83201 17.1721 6.71801 15.3175C6.61001 13.5181 7.22172 11.7824 8.44454 10.4337C9.81706 8.91864 12.2799 6.56309 12.384 6.46369C13.0514 5.82419 14.1091 5.84999 14.7487 6.5174C15.3862 7.1854 15.3637 8.24393 14.6957 8.88213C14.6705 8.90604 12.2163 11.2542 10.9226 12.6804C10.3116 13.3577 10.0033 14.2213 10.0577 15.1134C10.116 16.0611 10.5726 16.95 11.3448 17.6175C12.3608 18.4955 14.3643 18.6878 15.6183 17.5658C16.3639 16.8958 17.2693 15.9135 17.2785 15.9036C17.9029 15.223 18.9626 15.1791 19.6412 15.8049C20.3211 16.4292 20.3669 17.489 19.7413 18.169C19.6996 18.212 18.7174 19.2777 17.8504 20.0565C16.6422 21.1406 15.0403 21.6861 13.4411 21.6861Z" fill="white"/>
</svg>
