<svg width="32" height="32" viewBox="0 0 32 32" fill="none" xmlns="http://www.w3.org/2000/svg">
<rect width="32" height="32" rx="16" fill="#FFFC00"/>
<path d="M24.8597 20.246C24.7782 19.9741 24.3838 19.7837 24.3838 19.7837C24.3485 19.762 24.3132 19.7457 24.286 19.7321C23.6306 19.4166 23.0514 19.036 22.5647 18.6036C22.1732 18.2555 21.836 17.8749 21.5667 17.467C21.2377 16.9721 21.0827 16.5561 21.0175 16.3331C20.9794 16.1862 20.9876 16.1291 21.0175 16.053C21.0447 15.9905 21.1181 15.9279 21.1562 15.9007C21.3764 15.7457 21.7326 15.5146 21.9502 15.3732C22.1378 15.2509 22.301 15.1448 22.3961 15.0795C22.7034 14.8647 22.9128 14.6472 23.0378 14.4106C23.1983 14.1061 23.2173 13.7689 23.0922 13.4399C22.9236 12.9939 22.5076 12.7274 21.9801 12.7274C21.8632 12.7274 21.7408 12.741 21.6212 12.7655C21.3193 12.8307 21.0311 12.9395 20.7918 13.032C20.7755 13.0401 20.7564 13.0265 20.7564 13.0075C20.7809 12.412 20.8108 11.6125 20.7456 10.8512C20.6857 10.1632 20.5443 9.58402 20.3132 9.07825C20.0794 8.56976 19.7803 8.19451 19.541 7.92531C19.3153 7.66699 18.921 7.2863 18.3227 6.94368C17.4825 6.46238 16.5254 6.21765 15.4785 6.21765C14.4343 6.21765 13.4798 6.46238 12.6369 6.94096C12.0061 7.30261 11.6009 7.71049 11.416 7.92259C11.1794 8.19451 10.8776 8.56976 10.6437 9.07553C10.4126 9.5813 10.2712 10.1605 10.2114 10.8485C10.1461 11.6099 10.1733 12.3467 10.2005 13.0048C10.2005 13.0238 10.1815 13.0374 10.1651 13.0293C9.92586 12.9368 9.63762 12.828 9.33579 12.7627C9.21614 12.7356 9.0965 12.7247 8.97685 12.7247C8.44933 12.7247 8.03329 12.9912 7.8647 13.4371C7.73962 13.7689 7.75865 14.1033 7.91909 14.4079C8.04417 14.6444 8.25355 14.862 8.56082 15.0768C8.65599 15.1421 8.81914 15.2481 9.00677 15.3705C9.22159 15.5092 9.56692 15.7321 9.78718 15.8899C9.81437 15.9089 9.90682 15.9796 9.93673 16.053C9.96937 16.1319 9.9748 16.189 9.93402 16.344C9.86603 16.5696 9.71104 16.9803 9.38745 17.467C9.11825 17.8749 8.78108 18.2555 8.38951 18.6036C7.90005 19.036 7.32086 19.4166 6.66826 19.7321C6.63834 19.7457 6.60028 19.7647 6.55949 19.7892C6.5187 19.8136 6.16792 19.9877 6.0945 20.246C5.98573 20.6267 6.27397 20.9829 6.57308 21.176C7.0571 21.4887 7.64717 21.6573 7.98979 21.747C8.08496 21.7715 8.17197 21.796 8.25083 21.8204C8.29978 21.8367 8.42214 21.883 8.47652 21.951C8.54179 22.0353 8.54994 22.1413 8.57441 22.261C8.61249 22.4622 8.69678 22.7096 8.94423 22.8809C9.21614 23.0685 9.56421 23.0822 10.002 23.0985C10.4615 23.1148 11.0326 23.1393 11.6852 23.3541C11.987 23.4547 12.2616 23.6233 12.5798 23.8191C13.2433 24.2269 14.0699 24.7354 15.4812 24.7354C16.8925 24.7354 17.7245 24.2242 18.3935 23.8163C18.7089 23.6233 18.9808 23.4547 19.2772 23.3568C19.9298 23.142 20.5008 23.1202 20.9604 23.1012C21.3982 23.0849 21.7462 23.0713 22.0182 22.8836C22.2846 22.7014 22.3608 22.4268 22.3961 22.2202C22.4152 22.1195 22.4287 22.0271 22.4858 21.951C22.5348 21.8857 22.649 21.8422 22.7034 21.8232C22.785 21.7987 22.872 21.7742 22.9726 21.747C23.3152 21.6545 23.7421 21.5485 24.2642 21.2521C24.8815 20.8986 24.925 20.4609 24.8597 20.246Z" fill="white"/>
<path fill-rule="evenodd" clip-rule="evenodd" d="M25.2229 19.8123C25.5247 19.9809 25.7885 20.1821 25.9272 20.5601C26.0849 20.9816 25.9897 21.4629 25.6091 21.8708L25.6036 21.8762C25.4676 22.0312 25.2909 22.1672 25.0679 22.2895C24.5622 22.5696 24.1352 22.7029 23.8008 22.7953C23.7382 22.8143 23.6186 22.8579 23.5642 22.9041C23.4881 22.9693 23.4564 23.0531 23.4168 23.1576C23.3871 23.2361 23.3529 23.3262 23.2923 23.4289C23.1617 23.6519 23.0013 23.7987 22.8708 23.8884C22.4598 24.1723 22.0005 24.1901 21.5115 24.209L21.5031 24.2093C21.0571 24.2256 20.5541 24.2446 19.9803 24.435C19.7594 24.5078 19.526 24.6501 19.2564 24.8145C19.244 24.8221 19.2315 24.8298 19.2189 24.8374C18.5283 25.2616 17.5793 25.8435 16.0021 25.8435C14.4272 25.8435 13.4867 25.2659 12.7963 24.8419L12.7934 24.8401C12.5079 24.6634 12.2605 24.5111 12.0212 24.4323C11.4447 24.2419 10.9417 24.2229 10.4984 24.2065L10.49 24.2062C10.001 24.1873 9.54163 24.1696 9.13068 23.8857C9.01647 23.8095 8.88051 23.6872 8.76086 23.5104C8.66356 23.3705 8.61918 23.2521 8.58192 23.1527C8.54318 23.0493 8.51214 22.9665 8.43728 22.9013C8.37746 22.8497 8.2415 22.8062 8.18439 22.7899C7.85265 22.6974 7.42846 22.5642 6.93356 22.2895C6.72418 22.1726 6.55559 22.0475 6.42235 21.9034C6.01719 21.4873 5.91114 20.9952 6.07157 20.5601C6.25262 20.0703 6.64369 19.8738 7.05367 19.6678C7.12398 19.6325 7.19485 19.5969 7.26531 19.5594C8.17352 19.0673 8.88595 18.45 9.38356 17.7213C9.54943 17.4765 9.66908 17.2535 9.75065 17.0714C9.79688 16.9381 9.79688 16.8674 9.76425 16.7994C9.73706 16.7423 9.65276 16.6798 9.62829 16.6635C9.50398 16.5806 9.37617 16.4978 9.27433 16.4317C9.24919 16.4154 9.22563 16.4001 9.20409 16.3861C9.00287 16.2556 8.84516 16.1523 8.74183 16.0816C8.35571 15.8124 8.08651 15.5269 7.91791 15.206C7.68134 14.7546 7.65143 14.238 7.83362 13.754C8.08922 13.0823 8.72552 12.6635 9.49505 12.6635C9.65548 12.6635 9.81864 12.6799 9.97907 12.7152C9.99946 12.7207 10.0205 12.7254 10.0416 12.7302C10.0627 12.7349 10.0838 12.7397 10.1042 12.7451C10.096 12.2883 10.1069 11.8015 10.1477 11.323C10.2918 9.64523 10.8791 8.76421 11.4937 8.06266C11.7493 7.7717 12.1925 7.34207 12.8642 6.95866C13.7968 6.4257 14.8492 6.15649 15.9967 6.15649C17.1469 6.15649 18.2019 6.4257 19.1319 6.95866C19.7981 7.34207 20.2441 7.76898 20.4997 8.06266C21.1142 8.76421 21.7015 9.64251 21.8457 11.323C21.8865 11.7989 21.8973 12.2883 21.8892 12.7451C21.9299 12.7342 21.9707 12.7234 22.0143 12.7152C22.1774 12.6826 22.3378 12.6635 22.4983 12.6635C23.2705 12.6635 23.9041 13.0823 24.1597 13.754C24.3419 14.2407 24.312 14.7546 24.0754 15.206C23.9068 15.5269 23.6376 15.8124 23.2515 16.0816C23.1618 16.1445 23.0247 16.2334 22.8536 16.3444C22.8327 16.358 22.8112 16.3719 22.7892 16.3861C22.7427 16.4168 22.6863 16.4535 22.6246 16.4937C22.5385 16.5498 22.4422 16.6125 22.3487 16.6744C22.3161 16.6989 22.2535 16.7505 22.2291 16.7994C22.1992 16.862 22.1964 16.9327 22.2399 17.0578C22.3243 17.2427 22.4439 17.4711 22.6152 17.7213C23.1237 18.4663 23.8552 19.0944 24.796 19.5921C24.8885 19.6383 24.9809 19.6845 25.0706 19.7308C25.1142 19.7525 25.1658 19.7797 25.2229 19.8123ZM23.357 21.7558C23.6792 21.6696 24.0604 21.5676 24.5268 21.3107C25.0707 21.0088 24.7634 20.8239 24.5758 20.7369C21.4813 19.2386 20.9864 16.9245 20.9647 16.7505C20.9637 16.7425 20.9628 16.7345 20.9618 16.7267C20.9383 16.5311 20.9192 16.3725 21.1387 16.1686C21.2874 16.031 21.783 15.7099 22.1731 15.4572C22.3608 15.3356 22.5242 15.2298 22.6125 15.168C23.0639 14.8552 23.2624 14.5398 23.1156 14.1537C23.0149 13.8872 22.7648 13.7866 22.5011 13.7866C22.4195 13.7866 22.3379 13.7975 22.2563 13.8138C21.9617 13.8769 21.672 13.9901 21.4272 14.0858C21.2607 14.1508 21.1151 14.2078 21.0027 14.2353C20.9647 14.2434 20.9293 14.2489 20.8994 14.2489C20.7526 14.2489 20.6982 14.1836 20.7091 14.0041C20.7101 13.9891 20.7111 13.9737 20.7121 13.9578C20.7484 13.4044 20.8155 12.3806 20.7336 11.4236C20.6166 10.0694 20.1788 9.3978 19.6595 8.80229C19.412 8.51678 18.2455 7.27954 15.9994 7.27954C13.7588 7.27954 12.5895 8.51678 12.3394 8.80229C11.82 9.39508 11.3822 10.0694 11.2653 11.4236C11.1869 12.3391 11.2473 13.3158 11.2824 13.8832C11.285 13.9259 11.2875 13.9663 11.2898 14.0041C11.3006 14.1754 11.2463 14.2489 11.0994 14.2489C11.0668 14.2489 11.0342 14.2434 10.9961 14.2353C10.8806 14.2081 10.7297 14.1493 10.5572 14.0821C10.3155 13.988 10.0313 13.8773 9.74254 13.8138C9.66368 13.7975 9.57938 13.7866 9.49781 13.7866C9.23405 13.7866 8.98388 13.8872 8.88327 14.1537C8.73643 14.5398 8.93494 14.8525 9.38632 15.168C9.46858 15.2247 9.6158 15.32 9.78723 15.4311C10.1825 15.687 10.7065 16.0264 10.8601 16.1686C11.0844 16.3718 11.0629 16.534 11.0366 16.7323C11.0358 16.7383 11.035 16.7444 11.0342 16.7505C11.0124 16.9245 10.5202 19.2386 7.42306 20.7369C7.24087 20.8239 6.9336 21.0088 7.47744 21.3107C7.94474 21.5695 8.32733 21.6713 8.65017 21.7572C8.91722 21.8282 9.14339 21.8884 9.34282 22.0176C9.54583 22.1485 9.57454 22.3614 9.60119 22.559C9.6238 22.7267 9.64492 22.8832 9.76973 22.9693C9.91474 23.0695 10.1835 23.0798 10.5455 23.0936C11.0185 23.1117 11.6508 23.1358 12.3747 23.3745C12.7352 23.4938 13.0487 23.6863 13.3789 23.8892C14.0275 24.2877 14.7408 24.726 16.0022 24.726C17.2618 24.726 17.9825 24.284 18.6332 23.885C18.9629 23.6828 19.2747 23.4915 19.6296 23.3745C20.3535 23.1358 20.9858 23.1117 21.4588 23.0936C21.8208 23.0798 22.0895 23.0695 22.2346 22.9693C22.3609 22.8818 22.3819 22.7245 22.4044 22.5566C22.4307 22.3597 22.4589 22.1483 22.6615 22.0176C22.8626 21.8881 23.0894 21.8274 23.357 21.7558Z" fill="black"/>
</svg>
