<svg width="32" height="32" viewBox="0 0 32 32" fill="none" xmlns="http://www.w3.org/2000/svg">
<g clip-path="url(#clip0_778_5900)">
<rect width="32" height="32" rx="16" fill="white"/>
<path fill-rule="evenodd" clip-rule="evenodd" d="M16 0.0112305C7.20623 0.0112305 0.0112305 7.20623 0.0112305 16C0.0112305 24.7937 7.20623 31.9887 16 31.9887C24.7937 31.9887 31.9887 24.7937 31.9887 16C31.9887 7.20623 24.8737 0.0112305 16 0.0112305ZM23.355 23.115C23.035 23.5944 22.4756 23.7544 21.9962 23.435C18.2387 21.1169 13.5219 20.6369 7.92623 21.9162C7.36685 22.0762 6.88685 21.6762 6.72685 21.1969C6.56685 20.6375 6.96685 20.1575 7.44623 19.9975C13.5219 18.6387 18.7981 19.1981 22.9556 21.7562C23.5144 21.9956 23.5944 22.635 23.355 23.115ZM25.2737 18.7181C24.8737 19.2775 24.1544 19.5175 23.595 19.1181C19.2781 16.48 12.7225 15.6806 7.68623 17.2794C7.04685 17.4394 6.32748 17.1194 6.16748 16.48C6.00748 15.8406 6.32748 15.1212 6.96685 14.9612C12.8025 13.2025 19.9975 14.0819 24.9544 17.12C25.4331 17.3587 25.6731 18.1581 25.2737 18.7181ZM25.4331 14.2412C20.3169 11.2031 11.7625 10.8837 6.88623 12.4025C6.08685 12.6425 5.28748 12.1625 5.04748 11.4431C4.80748 10.6437 5.28748 9.84435 6.00686 9.60435C11.6831 7.9256 21.0362 8.24561 26.9525 11.7631C27.6719 12.1631 27.9119 13.1219 27.5119 13.8419C27.1119 14.4012 26.1531 14.6406 25.4331 14.2412Z" fill="#1DB954"/>
</g>
<defs>
<clipPath id="clip0_778_5900">
<rect width="32" height="32" rx="16" fill="white"/>
</clipPath>
</defs>
</svg>
