<svg width="32" height="32" viewBox="0 0 32 32" fill="none" xmlns="http://www.w3.org/2000/svg">
<rect width="32" height="32" rx="16" fill="#F6CC19"/>
<path d="M16.0001 32C24.058 32 30.5902 25.4678 30.5902 17.4098C30.5902 9.35193 24.058 2.8197 16.0001 2.8197C7.94214 2.8197 1.40991 9.35193 1.40991 17.4098C1.40991 25.4678 7.94214 32 16.0001 32Z" fill="#F6CC19"/>
<path d="M21.6042 0C21.6789 0.291016 21.7497 0.538774 21.8047 0.790464C21.8559 1.03429 21.8991 1.28205 21.9227 1.53374C21.9502 1.79329 21.966 2.05678 21.966 2.32027C21.9699 3.52366 21.7064 4.6484 20.9317 5.60403C20.4558 6.19 19.8541 6.63046 19.1659 6.94507C18.2614 7.36193 17.3058 7.55856 16.3226 7.64508C16.0041 7.67261 15.6816 7.67654 15.3631 7.69227C15.308 7.69621 15.249 7.70014 15.1625 7.708C15.2529 7.87711 15.3316 8.02655 15.4142 8.17206C16.4721 10.0676 17.5339 11.9671 18.5918 13.8626C19.4884 15.4671 20.3929 17.0677 21.2856 18.6722C21.8008 19.6004 22.3317 20.5167 22.8036 21.4684C23.2087 22.2824 23.307 23.1712 23.2244 24.0718C23.1261 25.1493 22.721 26.1168 22.08 26.978C21.4508 27.8235 20.6603 28.496 19.7244 28.9876C18.4305 29.6679 17.0541 29.9904 15.5951 29.9039C13.6877 29.7859 12.0203 29.1095 10.754 27.6348C9.71576 26.4235 9.2989 24.9999 9.51519 23.415C9.73935 21.7672 10.6045 20.4852 11.8787 19.4509C12.7714 18.7273 13.79 18.2672 14.899 18.0037C16.1771 17.7048 17.4552 17.7245 18.7294 18.0705C18.7766 18.0823 18.8277 18.0902 18.9221 18.1099C18.7648 17.8739 18.635 17.6734 18.4974 17.4767C17.5221 16.0649 16.5468 14.657 15.5754 13.2452C14.6237 11.8688 13.672 10.4884 12.7203 9.10803C12.1461 8.27824 11.5641 7.45631 11.0057 6.61866C10.6635 6.10741 10.6911 5.71415 11.0843 5.2147C11.3046 4.93941 11.5366 4.66806 11.7961 4.4321C12.5866 3.70063 13.5029 3.16579 14.5175 2.79612C15.3513 2.48937 16.2086 2.30847 17.0895 2.20229C17.7462 2.12363 18.3833 1.96633 19.0126 1.76183C19.4609 1.61632 19.8541 1.36463 20.2789 1.17586C20.8294 0.932039 21.148 0.448323 21.6042 0Z" fill="#14B457"/>
</svg>
