<svg width="32" height="32" viewBox="0 0 32 32" fill="none" xmlns="http://www.w3.org/2000/svg">
<rect width="32" height="32" rx="16" fill="black"/>
<path d="M14.0486 13.8765V13.0972C13.778 13.0543 13.5048 13.0309 13.2309 13.0269C10.5793 13.0213 8.23179 14.7396 7.43552 17.2688C6.63924 19.798 7.57915 22.5512 9.75562 24.0656C8.9575 23.2114 8.42367 22.1445 8.21856 20.9936C8.01345 19.8427 8.14583 18.6571 8.59972 17.5798C9.05361 16.5025 9.8096 15.5796 10.7765 14.9225C11.7433 14.2653 12.8797 13.9021 14.0484 13.8766L14.0486 13.8765Z" fill="#25F4EE"/>
<path d="M14.1954 22.7049C15.6779 22.7029 16.8965 21.5349 16.9614 20.0538V6.83687H19.376C19.3267 6.56069 19.3032 6.28053 19.3058 6L16.0031 6V19.2042C15.9482 20.6928 14.7267 21.872 13.2371 21.8744C12.7919 21.8706 12.354 21.7611 11.9595 21.555C12.2152 21.9093 12.551 22.1981 12.9396 22.398C13.3282 22.5978 13.7584 22.703 14.1954 22.7049ZM23.886 11.3212V10.5866C22.9974 10.587 22.1284 10.3247 21.3883 9.83288C22.0371 10.5871 22.9139 11.1096 23.886 11.3212Z" fill="#25F4EE"/>
<path d="M21.3886 9.83291C20.6594 9.00268 20.2575 7.93539 20.2579 6.83044H19.3763C19.4901 7.44136 19.7273 8.02266 20.0733 8.53887C20.4192 9.05509 20.8668 9.49539 21.3886 9.83291ZM13.231 16.3296C12.6126 16.3327 12.0131 16.5425 11.5277 16.9255C11.0423 17.3085 10.6989 17.8428 10.552 18.4435C10.4051 19.0441 10.4633 19.6766 10.7172 20.2404C10.9711 20.8042 11.4062 21.2669 11.9533 21.555C11.6542 21.142 11.475 20.6544 11.4357 20.1459C11.3963 19.6375 11.4983 19.128 11.7303 18.6739C11.9624 18.2198 12.3154 17.8387 12.7505 17.5726C13.1855 17.3066 13.6857 17.166 14.1956 17.1664C14.4729 17.17 14.7482 17.2132 15.0132 17.2945V13.934C14.7426 13.8935 14.4693 13.8721 14.1956 13.8702H14.0486V16.4254C13.7822 16.3539 13.5067 16.3216 13.231 16.3296Z" fill="#FE2C55"/>
<path d="M23.8865 11.3212V13.8765C22.2413 13.8733 20.6389 13.3526 19.3062 12.3881V19.102C19.2991 22.4521 16.5813 25.1643 13.2312 25.1643C11.9869 25.1665 10.7727 24.7826 9.75586 24.0655C10.585 24.9573 11.6635 25.5788 12.8508 25.8489C14.0382 26.1191 15.2794 26.0254 16.4127 25.5801C17.5461 25.1347 18.5191 24.3584 19.2049 23.3523C19.8908 22.3461 20.2578 21.1567 20.2581 19.939V13.2441C21.5953 14.2023 23.1996 14.7162 24.8447 14.7134V11.4232C24.5226 11.4222 24.2015 11.3881 23.8865 11.3212Z" fill="#FE2C55"/>
<path d="M19.306 19.102V12.3881C20.6427 13.3471 22.2474 13.8612 23.8926 13.8574V11.3022C22.9207 11.0969 22.0418 10.5812 21.3885 9.83291C20.8667 9.49539 20.4192 9.05509 20.0732 8.53887C19.7272 8.02266 19.4901 7.44136 19.3762 6.83044H16.9616V20.054C16.9381 20.6296 16.7359 21.1836 16.3831 21.639C16.0302 22.0944 15.5443 22.4285 14.9928 22.595C14.4413 22.7615 13.8516 22.752 13.3057 22.568C12.7599 22.3839 12.2849 22.0344 11.9468 21.568C11.3996 21.2799 10.9644 20.8172 10.7104 20.2533C10.4565 19.6895 10.3983 19.0569 10.5451 18.4562C10.692 17.8555 11.0355 17.3212 11.521 16.9382C12.0065 16.5551 12.6061 16.3454 13.2245 16.3423C13.5018 16.3448 13.7773 16.3879 14.0421 16.4701V13.9148C12.8671 13.9348 11.7233 14.2961 10.7501 14.9549C9.77691 15.6137 9.01641 16.5414 8.56134 17.6249C8.10627 18.7084 7.97628 19.9009 8.18723 21.057C8.39818 22.2131 8.94094 23.2828 9.74935 24.1358C10.7761 24.8293 11.9921 25.1885 13.2309 25.1643C16.5811 25.1643 19.2989 22.4521 19.306 19.102Z" fill="white"/>
</svg>
