<svg width="32" height="32" viewBox="0 0 32 32" fill="none" xmlns="http://www.w3.org/2000/svg">
<g clip-path="url(#clip0_778_5927)">
<rect width="32" height="32" rx="16" fill="white"/>
<path d="M16 32C24.8366 32 32 24.8366 32 16C32 7.16344 24.8366 0 16 0C7.16344 0 0 7.16344 0 16C0 24.8366 7.16344 32 16 32Z" fill="#FF0000"/>
<path d="M15.9999 8.36363C20.1999 8.36363 23.6362 11.7818 23.6362 16C23.6362 20.2182 20.218 23.6364 15.9999 23.6364C11.7817 23.6364 8.3635 20.2182 8.3635 16C8.3635 11.7818 11.7999 8.36363 15.9999 8.36363ZM15.9999 7.63635C11.3817 7.63635 7.63623 11.3818 7.63623 16C7.63623 20.6182 11.3817 24.3636 15.9999 24.3636C20.618 24.3636 24.3635 20.6182 24.3635 16C24.3635 11.3818 20.618 7.63635 15.9999 7.63635Z" fill="white"/>
<path d="M13.0908 20.1818L20.1817 15.8182L13.0908 11.8182V20.1818Z" fill="white"/>
</g>
<defs>
<clipPath id="clip0_778_5927">
<rect width="32" height="32" rx="16" fill="white"/>
</clipPath>
</defs>
</svg>
