<svg width="32" height="32" viewBox="0 0 32 32" fill="none" xmlns="http://www.w3.org/2000/svg">
<rect width="32" height="32" rx="16" fill="#FF0000"/>
<path fill-rule="evenodd" clip-rule="evenodd" d="M24.2049 9.43768C25.1102 9.68156 25.8218 10.3931 26.0623 11.2951C26.5 12.9321 26.5 16.3497 26.5 16.3497C26.5 16.3497 26.5 19.7673 26.0623 21.4042C25.8184 22.3095 25.1069 23.0211 24.2049 23.2616C22.5679 23.6993 16 23.6993 16 23.6993C16 23.6993 9.43544 23.6993 7.79512 23.2616C6.8898 23.0178 6.17819 22.3062 5.93768 21.4042C5.5 19.7673 5.5 16.3496 5.5 16.3496C5.5 16.3496 5.5 12.9321 5.93768 11.2951C6.18156 10.3898 6.89316 9.67819 7.79512 9.43768C9.43544 9 16 9 16 9C16 9 22.5679 9 24.2049 9.43768ZM19.3575 16.3496L13.9021 19.5V13.1993L19.3575 16.3496Z" fill="white"/>
</svg>
